<?xml version="1.0" encoding="UTF-8" standalone="no"?>
<!-- Created with Inkscape (http://www.inkscape.org/) -->

<svg
   xmlns:dc="http://purl.org/dc/elements/1.1/"
   xmlns:cc="http://creativecommons.org/ns#"
   xmlns:rdf="http://www.w3.org/1999/02/22-rdf-syntax-ns#"
   xmlns:svg="http://www.w3.org/2000/svg"
   xmlns="http://www.w3.org/2000/svg"
   xmlns:sodipodi="http://sodipodi.sourceforge.net/DTD/sodipodi-0.dtd"
   xmlns:inkscape="http://www.inkscape.org/namespaces/inkscape"
   width="87.01786mm"
   height="63.612362mm"
   viewBox="0 0 308.331 225.39813"
   id="svg3559"
   version="1.1"
   inkscape:version="0.91 r13725"
   sodipodi:docname="FlexRent_Logo_v1.svg">
  <defs
     id="defs3561" />
  <sodipodi:namedview
     id="base"
     pagecolor="#ff72ff"
     bordercolor="#666666"
     borderopacity="1.0"
     inkscape:pageopacity="0"
     inkscape:pageshadow="2"
     inkscape:zoom="2.0827921"
     inkscape:cx="110.01002"
     inkscape:cy="116.71253"
     inkscape:document-units="px"
     inkscape:current-layer="layer2"
     showgrid="true"
     fit-margin-top="0"
     fit-margin-left="0"
     fit-margin-right="0"
     fit-margin-bottom="0"
     showguides="false"
     inkscape:window-width="1855"
     inkscape:window-height="1056"
     inkscape:window-x="1145"
     inkscape:window-y="864"
     inkscape:window-maximized="1">
    <inkscape:grid
       type="xygrid"
       id="grid4431" />
  </sodipodi:namedview>
  <metadata
     id="metadata3564">
    <rdf:RDF>
      <cc:Work
         rdf:about="">
        <dc:format>image/svg+xml</dc:format>
        <dc:type
           rdf:resource="http://purl.org/dc/dcmitype/StillImage" />
        <dc:title></dc:title>
      </cc:Work>
    </rdf:RDF>
  </metadata>
  <g
     inkscape:label="Ebene 1"
     inkscape:groupmode="layer"
     id="layer1"
     transform="translate(-241.74287,-547.25561)"
     style="display:inline">
    <path
       style="fill:#ffffff;fill-opacity:1;fill-rule:evenodd;stroke:#ffffff;stroke-width:0.26295641px;stroke-linecap:butt;stroke-linejoin:miter;stroke-opacity:1"
       d="m 294.137,723.25792 c 0.32261,2.45985 0.86028,3.60243 0.86028,3.60243 0,0 0.45703,1.06189 0.92749,1.54579 0.47047,0.48391 0.92749,0.9544 1.46516,1.35764 0.53768,0.40327 1.1963,0.82413 1.88858,1.27026 0.72618,0.46799 1.93875,1.01686 2.72198,1.14928 0.785,0.13271 1.04847,0.21507 2.20447,0.25538 1.156,0.0403 1.33074,0.0538 1.33074,0.0538 0,0 -0.21195,-1.03027 -0.30604,-1.62171 -0.0941,-0.59144 -0.75587,-2.43773 -1.40108,-3.63405 -0.6452,-1.19632 -1.6399,-1.97596 -1.6399,-1.97596 0,0 -0.25876,-0.22851 -0.63009,-0.43351 -0.37133,-0.20498 -0.85524,-0.38642 -1.0367,-0.45363 -0.36293,-0.13442 -1.19633,-0.32262 -1.90875,-0.45704 -0.71242,-0.13443 -2.64804,-0.41671 -4.47614,-0.65866 z"
       id="path3353"
       inkscape:connector-curvature="0"
       sodipodi:nodetypes="ccccssccsscscsc" />
    <path
       style="fill:#ffffff;fill-opacity:1;fill-rule:evenodd;stroke:#ffffff;stroke-width:0.26295641px;stroke-linecap:butt;stroke-linejoin:miter;stroke-opacity:1"
       d="m 381.90253,722.61978 c 0,0 -0.48579,0.02 -1.39825,1.4268 -0.91247,1.40671 -2.58433,5.53955 -2.58433,5.53955 l -1.2176,4.30746 -0.68435,4.5243 -0.26614,5.24666 -0.0354,4.42211 c -5.3e-4,1.74906 0.55585,3.31244 0.83377,4.96867 l 0.26613,1.67285 1.10256,3.30767 1.1786,2.7754 1.02652,2.12911 c 0,0 0.83643,2.09106 0.95049,2.24312 0.057,0.19775 1.22572,2.13466 1.46938,2.27813 1.4493,1.26027 2.06101,1.03986 3.5163,1.03986 1.78453,-0.40327 1.91676,-1.62 2.04789,-2.78571 l -0.12435,-1.83523 c -0.0822,-0.50411 0.0233,-0.77942 -0.56821,-1.91434 l -0.86623,-1.42105 -1.21662,-2.20512 -0.85286,-1.92466 c -0.31683,-0.83641 -0.18742,-0.31615 -0.93405,-2.59964 l -0.46653,-2.10136 -0.33395,-2.66136 -0.13871,-3.55533 0.17881,-3.73408 0.28454,-3.72589 c 0.17169,-1.91766 0.36179,-3.21898 0.66594,-4.82846 l 0.57029,-2.69937 0.76039,-2.62334 0.60831,-1.90096 c 0.1057,-0.46748 0.0761,-0.99695 -0.038,-1.55881 -0.15649,-0.82952 -0.44706,-1.36819 -1.13954,-1.88042 -0.91578,-0.47204 -2.46798,-0.0168 -2.59482,0.0734 z"
       id="path3355"
       inkscape:connector-curvature="0"
       sodipodi:nodetypes="cscccccccccccccccccccccccccccccccc" />
    <path
       style="fill:#ffffff;fill-opacity:1;fill-rule:evenodd;stroke:#ffffff;stroke-width:0.26295641px;stroke-linecap:butt;stroke-linejoin:miter;stroke-opacity:1"
       d="m 420.63584,715.55756 c -0.55077,1.74298 -0.54406,3.99473 0.17727,5.79161 0.0269,0.10755 1.37905,2.99355 1.37905,2.99355 l 1.73946,3.05529 2.12017,3.06258 2.5772,3.1839 2.26551,2.41007 1.66897,1.63194 3.12215,2.64986 3.35464,2.25096 3.98826,2.40645 1.14655,0.90026 1.16111,0.7789 c 0.4694,0.23482 1.0235,0.52578 1.55415,0.59215 0.4368,0.0552 0.91806,0.11078 1.38415,0.0342 0.44542,-0.10802 0.83728,-0.35794 1.19232,-0.64666 0.35752,-0.34051 0.70028,-0.71958 0.76292,-1.24247 l 0.0668,-1.37253 c 0.0124,-0.49286 -0.13563,-0.98574 -0.20345,-1.4786 -0.0638,-0.49555 -0.40506,-1.06219 -0.70259,-1.57235 -0.33254,-0.44711 -0.56507,-0.81546 -1.4212,-1.33111 l -2.66514,-1.53091 -1.85498,-1.23663 -2.33889,-1.47861 -2.63459,-1.90874 -2.1507,-1.85498 -2.04317,-2.15069 -2.04316,-2.1776 -1.98506,-2.06641 -1.85931,-2.5576 c -0.41852,-0.7211 -0.83704,-1.33986 -1.25556,-2.19863 l -0.67046,-1.84711 c -0.17185,-0.59012 -0.36251,-1.23629 -0.51594,-1.78802 -0.12865,-0.34284 -0.22853,-0.67714 -0.49212,-1.16046 -0.55859,-0.71064 -0.61335,-0.76399 -1.08205,-1.07159 -0.36332,-0.27495 -0.74856,-0.43792 -1.60257,-0.40255 -1.17017,-0.0308 -1.52847,0.41338 -2.13978,1.33257 z"
       id="path3359"
       inkscape:connector-curvature="0"
       sodipodi:nodetypes="ccccccccccccccccccccccccccccccccccccc" />
    <path
       style="fill:#ffffff;fill-opacity:1;fill-rule:evenodd;stroke:#ffffff;stroke-width:0.26295641px;stroke-linecap:butt;stroke-linejoin:miter;stroke-opacity:1"
       d="m 527.41095,599.03903 c -0.33261,-1.58388 -0.0663,-3.02956 0.15209,-4.48628 0.13298,-1.21761 0.38282,-2.18255 1.1786,-3.38372 0.66026,-1.20183 1.63901,-1.87287 2.54729,-2.66135 1.1377,-0.99998 2.34951,-1.70359 3.57381,-2.3572 0.32078,-0.2123 0.69423,-0.21401 1.10258,-0.076 l 2.02531,1.71701 c 1.40422,1.15325 2.17263,2.3065 3.25322,3.45976 l 3.37857,4.65479 c 1.75547,2.46459 3.20063,5.55565 3.50908,6.55477 0.61471,1.7938 1.2335,3.53163 1.52075,5.39875 0.71979,2.90062 0.18415,5.84314 -2.58036,6.77478 -2.87015,0.33601 -4.08309,-0.29604 -5.89793,-2.25048 l -1.21662,-1.63483 -1.60296,-2.22057 -1.74274,-2.11364 -1.71088,-1.82492 -1.63482,-1.5588 -1.86294,-1.36869 c -1.21683,-1.02042 -3.30823,-1.33206 -3.99205,-2.62334 z"
       id="path3363"
       inkscape:connector-curvature="0"
       sodipodi:nodetypes="cccccccccccccccccccc" />
    <path
       style="fill:#ffffff;fill-opacity:1;fill-rule:evenodd;stroke:#ffffff;stroke-width:0.26295641px;stroke-linecap:butt;stroke-linejoin:miter;stroke-opacity:1"
       d="m 244.01605,769.38353 c -1.15669,-1.43398 -1.64994,-2.67046 -1.85788,-3.79891 -0.20931,-1.13592 -0.64174,-2.86733 0.28322,-5.88131 0.95473,-3.11098 2.28604,-5.94439 3.38885,-8.00968 1.23706,-2.31669 2.42791,-3.55564 2.40981,-3.55201 2.49384,-3.17799 5.07055,-5.63158 7.90552,-8.17608 2.88826,-2.54492 5.67753,-4.91379 8.74233,-7.08044 -0.0924,-0.14781 7.57995,-4.31838 9.73812,-5.2408 2.02026,-0.86347 6.33797,-2.82889 9.53287,-3.51247 3.19384,-0.68334 3.54021,-0.61753 3.54021,-0.61753 0.002,1.9e-4 0.22851,1.81446 0.56377,2.71053 0.37016,0.98938 2.22426,4.10265 2.34798,4.3006 0,0 1.48175,1.92158 3.35452,3.8267 1.63558,1.66381 4.44394,2.81195 5.08155,3.02847 1.4703,0.42126 2.80667,0.32775 4.3112,0.47519 l 0.43014,0.10752 -2.39265,1.47861 c -1.10531,0.55988 -2.21634,1.18735 -3.8194,1.54813 l -4.4339,0.89828 -6.06268,1.18288 c -2.27398,0.83408 -4.77608,1.46146 -7.05006,2.86273 -1.69412,0.92903 -3.16575,1.97646 -4.68142,3.0139 -1.79062,1.52326 -3.52538,3.15824 -5.27208,4.76935 l -4.59712,4.83906 -4.86595,6.34456 -2.67381,3.95191 -1.21647,1.70449 c -0.93117,1.38183 -1.48978,1.55896 -2.88009,1.78487 -0.42538,0.0689 -0.88691,0.13671 -1.55514,0.17836 -1.80805,0.0184 -3.4443,-0.0945 -5.035,-0.73152 -1.32988,-0.51552 -2.43884,-1.35428 -3.23644,-2.40539 z"
       id="path3384"
       inkscape:connector-curvature="0"
       sodipodi:nodetypes="cssscccsscscscccccccccccccccccc" />
    <path
       style="fill:#ffffff;fill-opacity:1;fill-rule:evenodd;stroke:#ffffff;stroke-width:0.26295641px;stroke-linecap:butt;stroke-linejoin:miter;stroke-opacity:1"
       d="m 430.04346,565.81014 c 1.10477,-2.66209 3.01542,-4.54726 4.94251,-6.61536 4.22303,-4.26101 7.565,-5.4487 13.26361,-7.89575 4.0678,-1.276 7.09685,-1.64311 10.5365,-2.36947 4.54883,-0.78474 6.81412,-0.89786 10.0371,-1.29265 3.57558,-0.31339 6.31054,-0.25317 9.12464,-0.22812 6.49405,0.2581 6.44236,0.65257 9.20066,0.9885 l 8.71356,1.72829 c 3.74006,1.01917 6.72225,2.34149 10.068,3.51838 -4.99746,0.59791 -8.65479,1.40698 -13.76301,3.87797 l -6.75911,3.18332 -5.86329,2.51958 c -5.56006,2.01115 -9.16856,2.07105 -13.83903,1.74889 -3.42159,-0.0864 -5.61907,-0.36654 -9.00589,-0.81386 -2.31817,-0.47989 -5.1443,-0.61113 -7.23154,-0.68632 -3.16991,-0.3697 -6.59053,-0.12651 -9.76781,-0.0206 -3.46663,-10e-4 -6.46051,1.19487 -9.6569,2.3572 z"
       id="path3386"
       inkscape:connector-curvature="0"
       sodipodi:nodetypes="ccccccccccccccccc" />
    <path
       style="fill:#ffffff;fill-opacity:1;fill-rule:evenodd;stroke:#ffffff;stroke-width:0.26295641px;stroke-linecap:butt;stroke-linejoin:miter;stroke-opacity:1"
       d="m 428.78136,571.74116 c 1.23821,-0.86171 2.67176,-1.17787 3.90552,-1.56195 1.93604,-0.58619 3.90726,-0.85571 5.87291,-1.17544 l 6.0831,-0.68435 c 3.81056,-0.41621 7.55353,0.2377 11.32974,0.68435 l 6.15284,0.63786 9.28302,0.2165 c 2.76933,-0.11207 4.98665,-0.71322 7.39368,-1.45005 l 6.10734,-2.3054 c 6.08411,-3.45681 10.16185,-5.04465 16.91444,-6.98394 3.71255,-1.12824 7.07684,-0.6699 10.86291,-0.37488 6.59016,1.4628 11.00247,4.78107 14.77439,9.01042 1.91338,1.97022 2.78973,4.35945 3.94175,6.80031 0.80267,2.56718 1.30082,4.54718 1.29264,7.29971 -2.61495,1.10432 -4.44113,2.59346 -6.43042,4.52748 -1.51029,1.33461 -2.03428,2.41562 -2.9861,3.67045 -1.4855,1.81991 -1.81559,3.92013 -1.9433,6.15013 l 0.03,2.76064 -6.15079,3.25739 c -4.15479,2.24616 -8.51676,3.38423 -13.02123,4.67122 -3.82715,0.7038 -7.72792,1.33935 -11.39551,2.64076 l -0.68434,0.22811 c -2.35751,-4.98438 -4.09226,-6.89331 -8.5286,-10.28581 -5.2885,-3.333 -10.72799,-4.55186 -17.24852,-5.53023 -7.39933,-0.12811 -13.06977,0.55525 -19.9221,1.90097 -0.9351,-0.66622 -1.86365,-1.07837 -2.8008,-2.02249 l -4.13668,-4.65098 -4.04696,-5.33963 c -0.98109,-1.73354 -1.94621,-3.53639 -2.72046,-5.32902 -0.75517,-2.21531 -1.43804,-4.45859 -1.92852,-6.76213 z"
       id="path3390"
       inkscape:connector-curvature="0"
       sodipodi:nodetypes="cccccccccccccccccccccccccccccc" />
    <path
       style="fill:#ffffff;fill-opacity:1;fill-rule:evenodd;stroke:#ffffff;stroke-width:0.26295641px;stroke-linecap:butt;stroke-linejoin:miter;stroke-opacity:1"
       d="m 372.93843,687.31991 c 0.19978,-1.39604 0.29016,-2.865 0.60831,-4.18213 1.24452,-4.90895 3.79137,-8.33859 6.61536,-12.69845 l 10.03711,-12.3943 9.42879,-12.01411 12.54638,-15.43585 c 4.63741,-7.46641 10.4427,-13.8242 16.42018,-20.81815 0,0 5.34561,-4.44016 8.10327,-5.75221 4.66253,-2.60118 10.8897,-4.8645 17.26645,-5.3233 6.41198,-0.46133 12.78107,-0.37226 17.79799,1.72624 4.48848,1.68933 8.4667,5.15071 8.4667,5.15071 2.97635,2.5665 5.65248,5.28916 7.57517,8.5492 0.63399,3.21786 0.64866,6.43572 0.97273,9.65359 l 0.42467,6.58581 -0.45623,0.45623 c -3.84029,-3.64587 -9.22648,-5.76765 -13.53489,-7.29971 -3.76462,-1.00128 -7.30966,-2.42728 -11.47121,-2.80482 -4.16565,-0.436 -8.40101,-1.01143 -12.39432,-1.1027 l -11.94869,-0.12253 c -7.02852,0.24996 -12.7047,3.51415 -18.02115,8.0601 -3.83667,3.45139 -5.4144,5.78291 -7.33674,10.29808 -1.13942,3.13929 -1.14201,7.05813 0.28553,10.05726 1.15415,3.31524 1.46665,6.88132 2.1087,11.04862 0,0 1.29266,9.65691 1.3687,9.96106 0.27531,3.99939 -0.21207,5.13927 -1.90097,8.44029 -2.83675,3.75341 -5.3896,4.69531 -9.67334,5.81598 -6.20798,0.55297 -12.57668,1.44378 -18.84116,2.32016 l -10.6454,1.29266 z"
       id="path3392"
       inkscape:connector-curvature="0"
       sodipodi:nodetypes="ccccccccscccccccccccccccccccc" />
    <path
       style="fill:#ffffff;fill-opacity:1;fill-rule:evenodd;stroke:#ffffff;stroke-width:0.26295641px;stroke-linecap:butt;stroke-linejoin:miter;stroke-opacity:1"
       d="m 364.0064,698.92815 c -0.3226,5.53805 0.63204,10.46869 0.63204,10.46869 0.73566,3.71298 2.35368,6.92127 4.0558,10.24633 1.24866,1.9338 3.03394,3.331 4.56156,4.98583 0.52453,-0.66036 1.05945,-1.31654 1.88743,-1.85552 2.79927,-1.71611 4.27087,-1.93386 6.33899,-2.06952 1.21579,-0.0134 2.36449,0.0736 3.33358,0.43014 4.22176,1.74945 4.92002,4.22498 5.75312,7.95759 l 2.20446,-0.1613 c 3.71521,-0.0856 7.38948,-0.59478 11.07331,-1.03755 4.08968,-0.86389 8.03639,-2.54481 11.73866,-4.38429 l -0.33717,-2.1056 c -0.0587,-2.25898 0.82331,-3.92804 1.88186,-5.59182 1.29261,-1.27958 2.6507,-2.48322 4.30139,-3.06474 2.29789,-0.78498 4.06096,-0.59931 6.36641,-0.21507 1.51099,0.43899 2.67638,1.02656 3.6881,2.15069 1.76175,-0.53615 3.17578,-1.77073 4.67777,-2.7959 l 6.27482,-4.87099 7.41821,-6.86457 10.87869,-12.24472 6.50586,-7.95758 4.73153,-6.98977 4.35516,-7.79628 4.84498,-7.90382 c 2.31073,-4.29235 3.85302,-8.90605 5.28518,-13.53343 l 1.64493,-7.65094 -3.97291,-3.1244 c -4.12697,-2.49727 -8.42028,-4.09453 -12.96383,-5.58593 -4.26276,-1.44759 -7.95051,-1.93721 -12.47993,-2.57495 -4.10107,-0.48791 -8.3875,-0.4775 -12.50597,-0.39233 l -7.35019,0.41557 c -1.63212,0.0304 -3.37683,0.10471 -5.86034,0.77289 -4.2967,1.3369 -4.90936,2.46898 -8.1615,5.01076 -1.19531,1.3251 -3.1118,2.69121 -4.02357,4.35655 -0.79548,1.22484 -1.51587,2.43895 -1.88186,3.60242 -1.01856,2.53861 -0.965,2.83332 -0.42875,5.477 l 1.66679,6.98977 1.02159,8.54902 1.28174,7.92706 c 0.37513,3.37542 0.12275,4.41377 -0.016,6.19054 -0.0565,1.06517 -0.55214,2.13035 -0.88942,3.19552 -0.64424,1.44536 -1.19465,2.92591 -2.31199,4.19386 -1.45877,1.92429 -3.02717,3.26003 -5.10791,4.35516 l -6.4851,2.48198 c -5.69072,0.22362 -11.02148,0.75578 -19.05521,2.03449 -5.50036,1.363 -8.62409,1.05793 -14.30137,1.72056 -2.30215,0.5919 -4.10902,1.33516 -5.96679,3.09527 -1.43119,1.34298 -3.09742,2.61464 -4.30419,4.16333 z"
       id="path3394"
       inkscape:connector-curvature="0"
       sodipodi:nodetypes="ccccccccccccccccccccccccccccccccccccccccccccccccc" />
    <path
       style="fill:#ffffff;fill-opacity:1;fill-rule:evenodd;stroke:#ffffff;stroke-width:0.26295641px;stroke-linecap:butt;stroke-linejoin:miter;stroke-opacity:1"
       d="m 413.31255,579.56442 c -4.73462,2.42134 -9.07938,4.72956 -14.73228,8.71033 -8.53521,5.61537 -17.5326,12.27617 -25.80838,20.10902 l -11.04138,10.02988 -13.69164,14.59561 c -4.09319,4.70316 -7.87598,9.60385 -11.63422,14.52016 -1.98309,2.94275 -4.07423,5.8601 -6.70498,8.71032 -5.13319,6.89347 -10.49196,13.96149 -14.91822,21.19305 -1.42786,3.13995 -3.48075,6.01948 -5.24008,9.02132 -2.71655,4.18411 -5.73902,8.39007 -8.071,12.54672 -1.9299,4.05239 -3.67382,8.27136 -5.04825,12.50891 l -1.24099,5.07148 2.94993,0.0408 c 1.4834,0.25097 2.7047,0.79965 3.88287,1.44739 2.12398,1.71648 3.96145,3.70011 5.80689,5.69934 1.40216,1.99855 2.4721,4.08317 3.33358,6.34456 1.58236,-0.44131 3.17248,-0.79186 4.73153,-1.50547 5.03704,-2.24652 8.9622,-5.18798 13.33433,-7.85007 4.73977,-3.01437 9.39469,-6.21541 13.97954,-9.5706 2.69968,-2.08909 6.07019,-3.38182 8.49525,-5.80688 -2.37304,-2.69655 -2.37785,-8.69064 -1.82809,-12.68912 0.17207,-2.15254 1.58115,-11.51183 0.09,-12.66588 -2.13399,0.28599 -3.58657,1.7626 -5.15874,3.11279 l -4.07176,2.77839 c -5.2848,3.22633 -9.17991,0.35869 -9.78567,-4.51647 -0.0747,-3.44326 0.11029,-7.58027 1.09286,-10.178 1.31116,-3.87555 3.48113,-8.39222 6.03931,-10.73892 1.12375,-1.02009 1.88986,-1.96714 3.51378,-2.84829 2.47104,-0.74764 3.4516,1.23202 2.78445,3.10674 l -2.581,2.62174 c -1.97855,1.4836 -3.13152,3.72961 -4.35377,6.04226 -1.13905,3.29786 -1.66463,6.40289 -1.76409,9.62871 0.18794,4.43789 0.75195,4.21979 4.30139,1.72056 l 3.76372,-2.58084 c 1.09279,-0.77722 2.00675,-1.59914 3.56027,-2.26118 0.94948,-0.32034 1.86454,-0.29651 2.78429,-0.31966 3.896,0.11325 4.51398,3.27842 5.10652,5.52209 0.1355,1.28939 0.0561,2.50715 0.0146,3.73753 l -0.38954,4.28978 c -0.61126,3.04252 -0.41929,6.36447 -0.32261,9.14046 0.0942,1.72975 0.39043,2.98777 0.64521,4.51647 2.62847,-3.51374 5.22049,-5.81306 8.17266,-8.60279 l 4.42923,-4.47834 0.19477,-1.22101 c 0.43794,-2.6488 0.6503,-5.17887 1.63332,-8.11455 0.75858,-2.42832 1.96712,-4.96982 3.31901,-7.45771 1.70266,-2.63169 3.52819,-5.30321 5.67611,-7.90521 l 6.36207,-8.13779 c 3.46289,-4.44372 6.95924,-8.5944 10.59668,-13.31992 1.75274,-2.99136 3.93961,-6.32195 6.54491,-9.34376 l 5.76334,-7.44609 c 3.11451,-3.70928 6.13427,-7.48488 8.93996,-11.41032 2.97332,-3.83465 6.2443,-7.49136 10.20125,-10.5268 1.5581,-1.45956 3.58106,-2.72565 5.37675,-4.08632 2.079,-1.24999 4.15801,-2.00732 6.23702,-3.01098 l -4.40893,-5.26921 c -1.40059,-1.7804 -2.84831,-3.34867 -4.19386,-5.37674 -0.89101,-1.16518 -1.57435,-2.67645 -2.28721,-4.13855 l -2.19145,1.31366 c -3.01824,1.51047 -6.0897,2.80928 -8.99807,4.7867 l -8.14089,4.81583 -7.52434,5.6964 -9.89321,8.9254 -6.66716,5.69935 -8.17265,7.31237 -8.38772,8.38772 c -2.04289,2.16873 -3.90302,4.40598 -5.69935,6.66716 -1.27394,1.48143 -2.46518,3.01011 -3.52247,4.61533 -1.98933,2.57049 -3.24008,5.08474 -5.24318,7.78326 -1.49928,0.96576 -2.61328,1.21527 -3.84212,0.37777 -0.88627,-1.42402 -0.39845,-2.35923 0.24126,-3.95849 l 6.41428,-9.23638 c 2.68812,-3.58569 5.80669,-6.827 8.77711,-10.18684 3.45423,-3.49233 7.01813,-6.98009 10.77689,-10.19537 2.84481,-2.4216 5.47511,-5.00096 8.32961,-7.54773 l 7.74825,-6.81546 c 6.73362,-6.11283 14.13391,-11.35224 21.72205,-16.02269 3.80005,-2.22277 9.78253,-5.2753 12.75016,-6.69924 l -1.61302,-4.08633 c -3.47193,1.59579 -6.29613,2.56962 -11.24468,4.97868 z"
       id="path3396"
       inkscape:connector-curvature="0"
       sodipodi:nodetypes="cccccccccccccccccccccccccccccccccccccccccccccccccccccccccccccccccccccccccccccccc" />
  </g>
  <g
     inkscape:groupmode="layer"
     id="layer2"
     inkscape:label="Ebene 2"
     style="display:inline">
    <path
       transform="translate(-241.74287,-547.25561)"
       style="fill:#000000;fill-opacity:1.0;fill-rule:evenodd;stroke:#ffffff;stroke-width:0.26295641px;stroke-linecap:butt;stroke-linejoin:miter;stroke-opacity:1"
       d="m 501.51958,567.46675 c 0.93957,-0.97144 1.40292,-1.4591 3.46647,-1.93563 2.05987,-0.47569 3.15748,-0.40924 4.98555,-0.0866 1.8281,0.32261 2.00257,0.36204 3.7607,1.30685 1.74866,0.93973 2.05064,1.15592 3.24388,2.22091 1.19672,1.06808 1.88188,1.98939 2.1507,3.27981 0.26884,1.29042 0.38368,3.11405 0.007,4.02809 -1.15735,2.1814 -3.26224,3.56911 -5.29295,3.74425 -0.93299,0.21932 -2.12779,0.12707 -3.33499,0.1897 -1.34997,-0.15323 -2.85989,-0.42481 -4.12224,-0.97227 -0.89334,-0.37319 -1.81343,-0.69894 -2.6196,-1.33363 -0.89471,-0.69108 -2.13386,-1.63487 -2.57353,-2.44795 -0.53022,-0.64218 -0.83304,-1.44333 -1.15143,-2.50921 -0.3907,-2.10916 0.14379,-3.68148 1.48008,-5.48428 z"
       id="path3388"
       inkscape:connector-curvature="0"
       sodipodi:nodetypes="cssssccccccccc" />
  </g>
</svg>
