<?xml version="1.0" encoding="UTF-8" standalone="no"?>
<!-- Created with Inkscape (http://www.inkscape.org/) -->

<svg
   xmlns:dc="http://purl.org/dc/elements/1.1/"
   xmlns:cc="http://creativecommons.org/ns#"
   xmlns:rdf="http://www.w3.org/1999/02/22-rdf-syntax-ns#"
   xmlns:svg="http://www.w3.org/2000/svg"
   xmlns="http://www.w3.org/2000/svg"
   xmlns:sodipodi="http://sodipodi.sourceforge.net/DTD/sodipodi-0.dtd"
   xmlns:inkscape="http://www.inkscape.org/namespaces/inkscape"
   width="87.01786mm"
   height="63.612362mm"
   viewBox="0 0 308.331 225.39813"
   id="svg3559"
   version="1.1"
   inkscape:version="0.91 r13725"
   sodipodi:docname="FlexRent_Logo_v1.svg">
  <defs
     id="defs3561" />
  <sodipodi:namedview
     id="base"
     pagecolor="#ffffff"
     bordercolor="#666666"
     borderopacity="1.0"
     inkscape:pageopacity="0"
     inkscape:pageshadow="2"
     inkscape:zoom="2.9455128"
     inkscape:cx="122.47812"
     inkscape:cy="117.78237"
     inkscape:document-units="px"
     inkscape:current-layer="layer1"
     showgrid="true"
     fit-margin-top="0"
     fit-margin-left="0"
     fit-margin-right="0"
     fit-margin-bottom="0"
     showguides="false"
     inkscape:window-width="1855"
     inkscape:window-height="1056"
     inkscape:window-x="1145"
     inkscape:window-y="864"
     inkscape:window-maximized="1">
    <inkscape:grid
       type="xygrid"
       id="grid4431" />
  </sodipodi:namedview>
  <metadata
     id="metadata3564">
    <rdf:RDF>
      <cc:Work
         rdf:about="">
        <dc:format>image/svg+xml</dc:format>
        <dc:type
           rdf:resource="http://purl.org/dc/dcmitype/StillImage" />
        <dc:title></dc:title>
      </cc:Work>
    </rdf:RDF>
  </metadata>
  <g
     inkscape:label="Ebene 1"
     inkscape:groupmode="layer"
     id="layer1"
     transform="translate(-241.74287,-547.25561)"
     style="display:inline">
    <path
       style="fill:#ffffff;fill-opacity:1;fill-rule:evenodd;stroke:#ffffff;stroke-width:0.26295641px;stroke-linecap:butt;stroke-linejoin:miter;stroke-opacity:1"
       d="M 231.92773 0.140625 C 230.44528 0.1616125 228.86787 0.22416437 227.08008 0.38085938 C 223.8571 0.77564937 221.5918 0.88908812 217.04297 1.6738281 C 213.60332 2.4001881 210.57366 2.7669688 206.50586 4.0429688 C 200.80725 6.4900187 197.46522 7.6784431 193.24219 11.939453 C 191.3151 14.007553 189.40555 15.892597 188.30078 18.554688 C 191.49717 17.392358 194.4904 16.196266 197.95703 16.197266 C 201.13431 16.091356 204.5547 15.84905 207.72461 16.21875 C 209.81185 16.29394 212.63886 16.424407 214.95703 16.904297 C 218.34385 17.351617 220.5413 17.63235 223.96289 17.71875 C 228.63336 18.04091 232.24267 17.9799 237.80273 15.96875 L 243.66602 13.449219 L 250.42383 10.265625 C 255.53205 7.794635 259.19004 6.9865819 264.1875 6.3886719 C 260.84175 5.2117819 257.8592 3.8883106 254.11914 2.8691406 L 245.40625 1.1425781 C 242.64795 0.80664812 242.69913 0.41044375 236.20508 0.15234375 C 234.79803 0.13981875 233.41018 0.1196375 231.92773 0.140625 z M 265.48438 11.142578 C 263.70598 11.132146 261.93831 11.299161 260.08203 11.863281 C 253.32944 13.802571 249.25013 15.390846 243.16602 18.847656 L 237.05859 21.152344 C 234.65156 21.889174 232.43535 22.489492 229.66602 22.601562 L 220.38281 22.386719 L 214.23047 21.748047 C 210.45426 21.301397 206.71095 20.648243 202.90039 21.064453 L 196.81641 21.748047 C 194.85076 22.067777 192.8794 22.337638 190.94336 22.923828 C 189.7096 23.307908 188.27727 23.624618 187.03906 24.486328 C 187.52954 26.789868 188.21163 29.032737 188.9668 31.248047 C 189.74105 33.040677 190.70641 34.842632 191.6875 36.576172 L 195.73438 41.916016 L 199.87109 46.566406 C 200.80824 47.510526 201.73678 47.923624 202.67188 48.589844 C 209.5242 47.244124 215.19442 46.561343 222.59375 46.689453 C 229.11428 47.667823 234.5533 48.88575 239.8418 52.21875 C 244.27814 55.61125 246.01358 57.519526 248.37109 62.503906 L 249.05469 62.277344 C 252.72228 60.975934 256.62402 60.340519 260.45117 59.636719 C 264.95564 58.349729 269.31787 57.211004 273.47266 54.964844 L 279.62305 51.707031 L 279.59375 48.947266 C 279.72146 46.717266 280.05161 44.616785 281.53711 42.796875 C 282.48893 41.542045 283.01119 40.461563 284.52148 39.126953 C 286.51077 37.192933 288.33817 35.703929 290.95312 34.599609 C 290.96132 31.847079 290.46283 29.866008 289.66016 27.298828 C 288.50814 24.857968 287.63213 22.468267 285.71875 20.498047 C 281.94683 16.268697 277.53352 12.951081 270.94336 11.488281 C 269.05032 11.340771 267.26277 11.153011 265.48438 11.142578 z M 265.82227 17.933594 C 266.58266 17.931075 267.31448 18.028133 268.22852 18.189453 C 270.05662 18.512063 270.2321 18.551284 271.99023 19.496094 C 273.73889 20.435824 274.03918 20.651807 275.23242 21.716797 C 276.42914 22.784877 277.11595 23.705674 277.38477 24.996094 C 277.65361 26.286514 277.76731 28.111351 277.39062 29.025391 C 276.23328 31.206791 274.12837 32.594391 272.09766 32.769531 C 271.16467 32.988851 269.97087 32.896354 268.76367 32.958984 C 267.4137 32.805754 265.90297 32.533788 264.64062 31.986328 C 263.7473 31.613138 262.82765 31.287034 262.02148 30.652344 C 261.12677 29.961264 259.88694 29.018158 259.44727 28.205078 C 258.91705 27.562898 258.61527 26.761193 258.29688 25.695312 C 257.90618 23.586153 258.4391 22.013738 259.77539 20.210938 L 259.77734 20.210938 C 260.71691 19.239497 261.18059 18.751921 263.24414 18.275391 C 264.27408 18.037546 265.06187 17.936112 265.82227 17.933594 z M 182.81445 27.330078 C 179.34252 28.925868 176.51886 29.899534 171.57031 32.308594 C 166.83569 34.729934 162.49079 37.038761 156.83789 41.019531 C 148.30268 46.634901 139.30508 53.296056 131.0293 61.128906 L 119.98828 71.158203 L 106.29688 85.753906 C 102.20369 90.457066 98.420349 95.357127 94.662109 100.27344 C 92.679019 103.21619 90.587781 106.13415 87.957031 108.98438 C 82.823841 115.87784 77.465323 122.94617 73.039062 130.17773 C 71.611202 133.31768 69.558158 136.19738 67.798828 139.19922 C 65.082278 143.38333 62.058543 147.58944 59.726562 151.74609 C 57.796663 155.79848 56.054118 160.01636 54.679688 164.25391 L 53.4375 169.32617 L 56.388672 169.36719 C 57.872072 169.61816 59.093314 170.16671 60.271484 170.81445 C 62.395464 172.53093 64.232685 174.51444 66.078125 176.51367 C 67.480285 178.51222 68.550629 180.59603 69.412109 182.85742 C 70.994469 182.41611 72.583528 182.06517 74.142578 181.35156 C 79.179618 179.10504 83.104432 176.16404 87.476562 173.50195 C 92.216333 170.48758 96.872181 167.28683 101.45703 163.93164 C 104.15671 161.84255 107.52807 160.55006 109.95312 158.125 C 107.58008 155.42845 107.57524 149.43403 108.125 145.43555 C 108.29707 143.28301 109.70599 133.92358 108.21484 132.76953 C 106.08085 133.05552 104.62686 134.53262 103.05469 135.88281 L 98.984375 138.66016 C 93.699575 141.88649 89.803026 139.01969 89.197266 134.14453 C 89.122566 130.70127 89.308446 126.56453 90.291016 123.9668 C 91.602176 120.09125 93.771898 115.57326 96.330078 113.22656 C 97.453828 112.20647 98.21983 111.26006 99.84375 110.37891 C 102.31479 109.63127 103.29606 111.61161 102.62891 113.48633 L 100.04688 116.10742 C 98.068325 117.59102 96.915609 119.83774 95.693359 122.15039 C 94.554309 125.44825 94.029148 128.55348 93.929688 131.7793 C 94.117628 136.21719 94.681029 135.99923 98.230469 133.5 L 101.99414 130.91797 C 103.08693 130.14075 104.00117 129.31829 105.55469 128.65625 C 106.50417 128.33591 107.42009 128.36104 108.33984 128.33789 C 112.23584 128.45114 112.85277 131.6157 113.44531 133.85938 C 113.58081 135.14877 113.50244 136.36728 113.46094 137.59766 L 113.07031 141.88672 C 112.45905 144.92924 112.65137 148.25135 112.74805 151.02734 C 112.84225 152.75709 113.1378 154.01427 113.39258 155.54297 C 116.02105 152.02923 118.61424 149.73114 121.56641 146.94141 L 125.99609 142.46289 L 126.18945 141.24219 C 126.62739 138.59339 126.8412 136.06263 127.82422 133.12695 C 128.5828 130.69863 129.79069 128.15781 131.14258 125.66992 C 132.84524 123.03823 134.67044 120.36567 136.81836 117.76367 L 143.17969 109.62695 C 146.64258 105.18323 150.1399 101.03216 153.77734 96.306641 C 155.53008 93.315281 157.71697 89.984701 160.32227 86.962891 L 166.08594 79.517578 C 169.20045 75.808298 172.2197 72.030909 175.02539 68.105469 C 177.99871 64.270819 181.26961 60.615518 185.22656 57.580078 C 186.78466 56.120518 188.80783 54.854811 190.60352 53.494141 C 192.68252 52.244151 194.76083 51.486082 196.83984 50.482422 L 192.43164 45.212891 C 191.03105 43.432491 189.58383 41.864008 188.23828 39.835938 C 187.34727 38.670758 186.66403 37.159366 185.95117 35.697266 L 183.75977 37.011719 C 180.74153 38.522189 177.67009 39.821408 174.76172 41.798828 L 166.61914 46.613281 L 159.0957 52.310547 L 149.20312 61.236328 L 142.53516 66.935547 L 134.36328 74.248047 L 125.97461 82.634766 C 123.93172 84.803496 122.07172 87.041554 120.27539 89.302734 C 119.00145 90.784164 117.8112 92.312749 116.75391 93.917969 C 114.76458 96.488459 113.51287 99.002652 111.50977 101.70117 C 110.01049 102.66693 108.89681 102.91562 107.66797 102.07812 C 106.7817 100.6541 107.26849 99.720354 107.9082 98.121094 L 114.32422 88.884766 C 117.01234 85.299076 120.12919 82.057106 123.09961 78.697266 C 126.55384 75.204936 130.11819 71.717233 133.87695 68.501953 C 136.72176 66.080353 139.35253 63.499895 142.20703 60.953125 L 149.95508 54.138672 C 156.6887 48.025842 164.08959 42.785684 171.67773 38.115234 C 175.47778 35.892464 181.4601 32.839956 184.42773 31.416016 L 182.81445 27.330078 z M 293.63867 38.724609 C 293.45417 38.734323 293.27953 38.788381 293.11914 38.894531 C 291.89484 39.548141 290.68457 40.251973 289.54688 41.251953 C 288.6386 42.040433 287.65831 42.712233 286.99805 43.914062 C 286.20227 45.115233 285.95329 46.079265 285.82031 47.296875 C 285.60192 48.753595 285.33536 50.199323 285.66797 51.783203 C 286.35179 53.074483 288.44333 53.38583 289.66016 54.40625 L 291.52344 55.775391 L 293.1582 57.333984 L 294.86914 59.160156 L 296.61133 61.273438 L 298.21484 63.494141 L 299.43164 65.128906 C 301.24648 67.083346 302.45798 67.714916 305.32812 67.378906 C 308.09264 66.447266 308.62995 63.504136 307.91016 60.603516 C 307.62291 58.736396 307.00338 56.998878 306.38867 55.205078 C 306.08022 54.205958 304.63438 51.114981 302.87891 48.650391 L 299.50195 43.996094 C 298.42136 42.842834 297.65227 41.688406 296.24805 40.535156 L 294.22266 38.818359 C 294.01848 38.749354 293.82318 38.714896 293.63867 38.724609 z M 217.00195 51.226562 C 215.42478 51.250298 213.8237 51.32998 212.2207 51.445312 C 205.84395 51.904112 199.61761 54.168351 194.95508 56.769531 C 192.19742 58.081581 186.85156 62.521484 186.85156 62.521484 C 180.87408 69.515434 175.06905 75.873434 170.43164 83.339844 L 157.88477 98.775391 L 148.45703 110.78906 L 138.41992 123.18359 C 135.59593 127.54345 133.04921 130.97386 131.80469 135.88281 C 131.48654 137.19994 131.39509 138.66841 131.19531 140.06445 L 134.99805 139.53125 L 145.64258 138.24023 C 151.90706 137.36385 158.27639 136.47289 164.48438 135.91992 C 168.76812 134.79925 171.32145 133.85693 174.1582 130.10352 C 175.8471 126.8025 176.3339 125.6615 176.05859 121.66211 C 175.98255 121.35796 174.68945 111.70117 174.68945 111.70117 C 174.0474 107.53387 173.73423 103.96758 172.58008 100.65234 C 171.15254 97.653214 171.1555 93.734993 172.29492 90.595703 C 174.21726 86.080533 175.79614 83.750218 179.63281 80.298828 C 184.94926 75.752878 190.62578 72.488241 197.6543 72.238281 L 209.60156 72.359375 C 213.59487 72.450645 217.83044 73.026891 221.99609 73.462891 C 226.15764 73.840431 229.70218 75.266298 233.4668 76.267578 C 237.77521 77.799638 243.16166 79.922489 247.00195 83.568359 L 247.45898 83.111328 L 247.0332 76.525391 C 246.70913 73.307521 246.69454 70.088954 246.06055 66.871094 C 244.13786 63.611054 241.46268 60.888766 238.48633 58.322266 C 238.48633 58.322266 234.50801 54.861205 230.01953 53.171875 C 226.25684 51.598 221.73348 51.155357 217.00195 51.226562 z M 207.55273 77.097656 C 206.50764 77.102986 205.46712 77.119333 204.4375 77.140625 L 197.08789 77.556641 C 195.45577 77.587041 193.71007 77.661898 191.22656 78.330078 C 186.92986 79.666978 186.31855 80.798064 183.06641 83.339844 C 181.8711 84.664944 179.95279 86.031926 179.04102 87.697266 C 178.24554 88.922106 177.52615 90.135358 177.16016 91.298828 C 176.1416 93.837438 176.19422 94.131711 176.73047 96.775391 L 178.39844 103.76562 L 179.41992 112.31445 L 180.70117 120.24219 C 181.0763 123.61761 180.8243 124.65487 180.68555 126.43164 C 180.62905 127.49681 180.13415 128.56178 179.79688 129.62695 C 179.15263 131.07231 178.60171 132.55432 177.48438 133.82227 C 176.0256 135.74656 174.45769 137.0826 172.37695 138.17773 L 165.89062 140.6582 C 160.19991 140.88182 154.86967 141.41465 146.83594 142.69336 C 141.33558 144.05636 138.21244 143.75143 132.53516 144.41406 C 130.23301 145.00596 128.42613 145.74966 126.56836 147.50977 C 125.13717 148.85275 123.47044 150.12319 122.26367 151.67188 C 121.94107 157.20992 122.89648 162.14062 122.89648 162.14062 C 123.63214 165.85361 125.24905 169.06166 126.95117 172.38672 C 128.19983 174.32052 129.98605 175.71822 131.51367 177.37305 C 132.0382 176.71269 132.57241 176.05656 133.40039 175.51758 C 136.19966 173.80147 137.67211 173.58488 139.74023 173.44922 C 140.95602 173.43582 142.10318 173.52237 143.07227 173.87891 C 147.29403 175.62836 147.99307 178.10333 148.82617 181.83594 L 151.03125 181.67383 C 154.74646 181.58823 158.41969 181.07949 162.10352 180.63672 C 166.1932 179.77283 170.13953 178.09339 173.8418 176.25391 L 173.50586 174.14648 C 173.44716 171.8875 174.32817 170.21847 175.38672 168.55469 C 176.67933 167.27511 178.03876 166.07175 179.68945 165.49023 C 181.98734 164.70525 183.74924 164.89115 186.05469 165.27539 C 187.56568 165.71438 188.73047 166.30165 189.74219 167.42578 C 191.50394 166.88963 192.91793 165.65603 194.41992 164.63086 L 200.69531 159.75977 L 208.11328 152.89453 L 218.99219 140.65039 L 225.49805 132.69336 L 230.23047 125.70312 L 234.58594 117.90625 L 239.42969 110.00195 C 241.74042 105.7096 243.28268 101.09613 244.71484 96.46875 L 246.35938 88.818359 L 242.38672 85.693359 C 238.25975 83.196089 233.96738 81.598822 229.42383 80.107422 C 225.16107 78.659832 221.47278 78.170943 216.94336 77.533203 C 213.86756 77.167271 210.68801 77.081668 207.55273 77.097656 z M 181.0332 166.96875 C 179.86303 166.93795 179.50389 167.38354 178.89258 168.30273 C 178.34181 170.04571 178.34898 172.29687 179.07031 174.09375 C 179.09721 174.2013 180.44922 177.08789 180.44922 177.08789 L 182.18945 180.14258 L 184.30859 183.20508 L 186.88672 186.38867 L 189.15234 188.79883 L 190.82031 190.43164 L 193.94336 193.08008 L 197.29688 195.33203 L 201.28516 197.73828 L 202.43164 198.63867 L 203.59375 199.41797 C 204.06315 199.65279 204.61583 199.9434 205.14648 200.00977 C 205.58328 200.06497 206.06516 200.11955 206.53125 200.04297 C 206.97667 199.93495 207.36957 199.6852 207.72461 199.39648 C 208.08213 199.05597 208.42369 198.67719 208.48633 198.1543 L 208.55273 196.78125 C 208.56513 196.28839 208.41743 195.79559 208.34961 195.30273 C 208.28581 194.80718 207.94597 194.24063 207.64844 193.73047 C 207.3159 193.28336 207.08269 192.91604 206.22656 192.40039 L 203.56055 190.86914 L 201.70703 189.63281 L 199.36719 188.1543 L 196.73242 186.24414 L 194.58203 184.39062 L 192.53906 182.24023 L 190.49609 180.0625 L 188.50977 177.99609 L 186.65234 175.4375 C 186.23382 174.7164 185.815 174.09705 185.39648 173.23828 L 184.72461 171.39258 C 184.55276 170.80246 184.36241 170.15525 184.20898 169.60352 C 184.08033 169.26068 183.98039 168.92668 183.7168 168.44336 C 183.15821 167.73272 183.10347 167.67869 182.63477 167.37109 C 182.27145 167.09614 181.88721 166.93338 181.0332 166.96875 z M 141.98047 175.08984 C 141.15162 175.02297 140.25529 175.29563 140.16016 175.36328 C 140.16016 175.36328 139.67418 175.38422 138.76172 176.79102 C 137.84925 178.19773 136.17773 182.33008 136.17773 182.33008 L 134.95898 186.63867 L 134.27539 191.16211 L 134.00977 196.4082 L 133.97266 200.83008 C 133.97213 202.57914 134.52872 204.1426 134.80664 205.79883 L 135.07422 207.47266 L 136.17578 210.7793 L 137.35547 213.55469 L 138.38086 215.68555 C 138.38086 215.68555 139.21797 217.77567 139.33203 217.92773 C 139.38903 218.12548 140.55712 220.06161 140.80078 220.20508 C 142.25008 221.46535 142.86112 221.24609 144.31641 221.24609 C 146.10094 220.84282 146.2341 219.62665 146.36523 218.46094 L 146.24023 216.625 C 146.15803 216.12089 146.26339 215.84586 145.67188 214.71094 L 144.80664 213.28906 L 143.58984 211.08398 L 142.73633 209.16016 C 142.4195 208.32375 142.54936 208.84404 141.80273 206.56055 L 141.33594 204.45898 L 141.00195 201.79688 L 140.86328 198.24219 L 141.04297 194.50781 L 141.32617 190.78125 C 141.49786 188.86359 141.68804 187.5626 141.99219 185.95312 L 142.5625 183.25391 L 143.32422 180.63086 L 143.93164 178.73047 C 144.03734 178.26299 144.00863 177.73374 143.89453 177.17188 C 143.73804 176.34235 143.44639 175.80325 142.75391 175.29102 C 142.52496 175.17301 142.25675 175.11214 141.98047 175.08984 z M 52.394531 176.00195 C 52.717141 178.4618 53.253906 179.60547 53.253906 179.60547 C 53.253906 179.60547 53.711181 180.66649 54.181641 181.15039 C 54.652111 181.6343 55.108814 182.10457 55.646484 182.50781 C 56.184164 182.91108 56.842876 183.33317 57.535156 183.7793 C 58.261336 184.24729 59.474583 184.79531 60.257812 184.92773 C 61.042813 185.06044 61.306891 185.14328 62.462891 185.18359 C 63.618891 185.22389 63.792969 185.23633 63.792969 185.23633 C 63.792969 185.23633 63.580418 184.20667 63.486328 183.61523 C 63.392228 183.02379 62.731147 181.17679 62.085938 179.98047 C 61.440738 178.78415 60.445312 178.00586 60.445312 178.00586 C 60.445312 178.00586 60.187736 177.77727 59.816406 177.57227 C 59.445076 177.36729 58.960757 177.1844 58.779297 177.11719 C 58.416367 176.98277 57.583514 176.79458 56.871094 176.66016 C 56.158674 176.52573 54.222631 176.2439 52.394531 176.00195 z M 45.957031 176.25781 C 45.957031 176.25781 45.609856 176.19361 42.416016 176.87695 C 39.221116 177.56053 34.903073 179.5252 32.882812 180.38867 C 30.724643 181.31109 23.052131 185.4811 23.144531 185.62891 C 20.079731 187.79556 17.290604 190.16406 14.402344 192.70898 C 11.567374 195.25348 8.9918869 197.70873 6.4980469 200.88672 C 6.5161469 200.88309 5.3249506 202.12081 4.0878906 204.4375 C 2.9850806 206.50279 1.6539488 209.33629 0.69921875 212.44727 C -0.22574125 215.46125 0.20670563 217.1922 0.41601562 218.32812 C 0.62395563 219.45657 1.1167475 220.69297 2.2734375 222.12695 C 3.0710375 223.17806 4.1798856 224.01768 5.5097656 224.5332 C 7.1004656 225.17022 8.7368719 225.28403 10.544922 225.26562 C 11.213152 225.22397 11.674229 225.15484 12.099609 225.08594 C 13.489919 224.86003 14.049299 224.68261 14.980469 223.30078 L 16.197266 221.59766 L 18.871094 217.64453 L 23.736328 211.30078 L 28.333984 206.46094 C 30.080684 204.84983 31.814849 203.21467 33.605469 201.69141 C 35.121139 200.65397 36.592989 199.60676 38.287109 198.67773 C 40.561089 197.27646 43.061958 196.65049 45.335938 195.81641 L 51.400391 194.63281 L 55.833984 193.73438 C 57.437044 193.3736 58.547034 192.74543 59.652344 192.18555 L 62.044922 190.70703 L 61.615234 190.59961 C 60.110704 190.45217 58.774988 190.54626 57.304688 190.125 C 56.667078 189.90848 53.858236 188.75951 52.222656 187.0957 C 50.349886 185.19058 48.867188 183.26953 48.867188 183.26953 C 48.743468 183.07158 46.889691 179.95813 46.519531 178.96875 C 46.184271 178.07268 45.959031 176.258 45.957031 176.25781 z "
       transform="translate(241.74287,547.25561)"
       id="path3353" />
  </g>
  <g
     inkscape:groupmode="layer"
     id="layer2"
     inkscape:label="Ebene 2"
     style="display:inline" />
</svg>
