<?xml version="1.0" encoding="UTF-8" standalone="no"?>
<svg xmlns:rdf="http://www.w3.org/1999/02/22-rdf-syntax-ns#" xmlns="http://www.w3.org/2000/svg" height="63.612mm" width="87.018mm" version="1.1" xmlns:cc="http://creativecommons.org/ns#" xmlns:dc="http://purl.org/dc/elements/1.1/" viewBox="0 0 308.331 225.39813">
 <g transform="translate(-241.74 -547.26)">
  <path d="m231.93 0.14062c-1.4824 0.020988-3.0599 0.083539-4.8476 0.24023-3.223 0.39479-5.4883 0.50823-10.037 1.293-3.4396 0.72636-6.4693 1.0931-10.537 2.3691-5.6986 2.447-9.0406 3.6355-13.264 7.8965-1.9271 2.0681-3.8366 3.9531-4.9414 6.6152 3.1964-1.1623 6.1896-2.3584 9.6562-2.3574 3.1773-0.10591 6.5977-0.34822 9.7676 0.02148 2.0872 0.07519 4.9142 0.20566 7.2324 0.68555 3.3868 0.44732 5.5843 0.72805 9.0059 0.81445 4.6705 0.32216 8.2798 0.26115 13.84-1.75l5.8633-2.5195 6.7578-3.1836c5.1082-2.471 8.7662-3.279 13.764-3.877-3.3458-1.1769-6.3283-2.5004-10.068-3.5195l-8.7129-1.7266c-2.7583-0.33593-2.7071-0.73213-9.2012-0.99023-1.407-0.012525-2.7949-0.032706-4.2774-0.011719zm33.557 11.002c-1.7784-0.01043-3.5461 0.15658-5.4024 0.7207-6.7526 1.9393-10.832 3.5276-16.916 6.9844l-6.1074 2.3047c-2.407 0.73683-4.6232 1.3371-7.3926 1.4492l-9.2832-0.21484-6.1523-0.63867c-3.7762-0.44665-7.5195-1.0998-11.33-0.68359l-6.084 0.68359c-1.9656 0.31973-3.937 0.58959-5.873 1.1758-1.2338 0.38408-2.6661 0.70079-3.9043 1.5625 0.49048 2.3035 1.1726 4.5464 1.9277 6.7617 0.77425 1.7926 1.7396 3.5946 2.7207 5.3281l4.0469 5.3398 4.1367 4.6504c0.93715 0.94412 1.8657 1.3572 2.8008 2.0234 6.8523-1.3457 12.523-2.0285 19.922-1.9004 6.5205 0.97837 11.96 2.1963 17.248 5.5293 4.4363 3.3925 6.1718 5.3008 8.5293 10.285l0.6836-0.22656c3.6676-1.3014 7.5693-1.9368 11.396-2.6406 4.5045-1.287 8.8667-2.4257 13.021-4.6719l6.1504-3.2578-0.0293-2.7598c0.12771-2.23 0.45786-4.3305 1.9434-6.1504 0.95182-1.2548 1.4741-2.3353 2.9844-3.6699 1.9893-1.934 3.8167-3.423 6.4316-4.5273 0.008-2.7525-0.49029-4.7336-1.293-7.3008-1.152-2.4409-2.028-4.8306-3.9414-6.8008-3.7719-4.2294-8.1852-7.547-14.775-9.0098-1.893-0.14751-3.6806-0.33527-5.459-0.3457zm0.33789 6.791c0.76039-0.0025 1.4922 0.09454 2.4062 0.25586 1.8281 0.32261 2.0036 0.36183 3.7617 1.3066 1.7487 0.93973 2.049 1.1557 3.2422 2.2207 1.1967 1.0681 1.8835 1.9889 2.1524 3.2793 0.26884 1.2904 0.38254 3.1153 0.006 4.0293-1.1573 2.1814-3.2622 3.569-5.293 3.7441-0.93299 0.21932-2.1268 0.12682-3.334 0.18945-1.35-0.15323-2.8607-0.4252-4.123-0.97266-0.89332-0.37319-1.813-0.69929-2.6191-1.334-0.89471-0.69108-2.1345-1.6342-2.5742-2.4473-0.53022-0.64218-0.832-1.4439-1.1504-2.5098-0.3907-2.1092 0.14222-3.6816 1.4785-5.4844h0.002c0.93957-0.97144 1.4032-1.459 3.4668-1.9355 1.0299-0.23784 1.8177-0.33928 2.5781-0.3418zm-83.008 9.3965c-3.4719 1.5958-6.2956 2.5695-11.244 4.9785-4.7346 2.4213-9.0795 4.7302-14.732 8.7109-8.5352 5.6154-17.533 12.277-25.809 20.109l-11.041 10.029-13.691 14.596c-4.0932 4.7032-7.8765 9.6032-11.635 14.52-1.9831 2.9428-4.0743 5.8607-6.7051 8.7109-5.1332 6.8935-10.492 13.962-14.918 21.193-1.4279 3.14-3.4809 6.0196-5.2402 9.0215-2.7166 4.1841-5.7403 8.3902-8.0723 12.547-1.9299 4.0524-3.6724 8.2703-5.0469 12.508l-1.2422 5.0723 2.9512 0.041c1.4834 0.25097 2.7046 0.79952 3.8828 1.4473 2.124 1.7165 3.9612 3.7 5.8066 5.6992 1.4022 1.9986 2.4725 4.0824 3.334 6.3438 1.5824-0.44131 3.1714-0.79225 4.7305-1.5059 5.037-2.2465 8.9619-5.1875 13.334-7.8496 4.7398-3.0144 9.3956-6.2151 13.98-9.5703 2.6997-2.0891 6.071-3.3816 8.4961-5.8066-2.373-2.6966-2.3779-8.691-1.8281-12.689 0.17207-2.1525 1.581-11.512 0.0898-12.666-2.134 0.28599-3.588 1.7631-5.1602 3.1133l-4.0703 2.7774c-5.2848 3.2263-9.1813 0.35953-9.7871-4.5156-0.0747-3.4433 0.11118-7.58 1.0938-10.178 1.3112-3.8756 3.4809-8.3935 6.0391-10.74 1.1238-1.0201 1.8898-1.9665 3.5137-2.8476 2.471-0.74764 3.4523 1.2327 2.7852 3.1074l-2.582 2.6211c-1.9786 1.4836-3.1313 3.7303-4.3535 6.043-1.139 3.2979-1.6642 6.4031-1.7637 9.6289 0.18794 4.4379 0.75134 4.2199 4.3008 1.7207l3.7637-2.582c1.0928-0.77722 2.007-1.5997 3.5606-2.2617 0.94948-0.32034 1.8654-0.29521 2.7852-0.31836 3.896 0.11325 4.5129 3.2778 5.1055 5.5215 0.1355 1.2894 0.0571 2.5079 0.0156 3.7383l-0.39063 4.2891c-0.61126 3.0425-0.41894 6.3646-0.32226 9.1406 0.0942 1.7298 0.38975 2.9869 0.64453 4.5156 2.6285-3.5137 5.2217-5.8118 8.1738-8.6016l4.4297-4.4785 0.19336-1.2207c0.43794-2.6488 0.65175-5.1796 1.6348-8.1152 0.75858-2.4283 1.9665-4.9691 3.3184-7.457 1.7027-2.6317 3.5279-5.3042 5.6758-7.9062l6.3613-8.1367c3.4629-4.4437 6.9602-8.5948 10.598-13.32 1.7527-2.9914 3.9396-6.3219 6.5449-9.3438l5.7637-7.4453c3.1145-3.7093 6.1338-7.4867 8.9394-11.412 2.9733-3.8346 6.2442-7.49 10.201-10.525 1.5581-1.4596 3.5813-2.7253 5.377-4.0859 2.079-1.25 4.1573-2.0081 6.2363-3.0117l-4.4082-5.2695c-1.4006-1.7804-2.8478-3.3489-4.1934-5.377-0.89101-1.1652-1.5742-2.6766-2.2871-4.1387l-2.1914 1.3145c-3.0182 1.5105-6.0897 2.8097-8.998 4.7871l-8.1426 4.8145-7.5234 5.6973-9.8926 8.9258-6.668 5.6992-8.1719 7.3125-8.3887 8.3867c-2.0429 2.1687-3.9029 4.4068-5.6992 6.668-1.2739 1.4814-2.4642 3.01-3.5215 4.6152-1.9893 2.5705-3.241 5.0847-5.2441 7.7832-1.4993 0.96576-2.613 1.2144-3.8418 0.37695-0.88627-1.424-0.39948-2.3578 0.24023-3.957l6.416-9.2363c2.6881-3.5857 5.805-6.8277 8.7754-10.188 3.4542-3.4923 7.0186-6.98 10.777-10.195 2.8448-2.4216 5.4756-5.0021 8.3301-7.5488l7.748-6.8145c6.7336-6.1128 14.135-11.353 21.723-16.023 3.8-2.2228 9.7824-5.2753 12.75-6.6992l-1.6133-4.0859zm110.82 11.395c-0.1845 0.0097-0.35914 0.06377-0.51953 0.16992-1.2243 0.65361-2.4346 1.3574-3.5723 2.3574-0.90828 0.78848-1.8886 1.4603-2.5488 2.6621-0.79578 1.2012-1.0448 2.1652-1.1777 3.3828-0.21839 1.4567-0.48495 2.9024-0.15234 4.4863 0.68382 1.2913 2.7754 1.6026 3.9922 2.623l1.8633 1.3691 1.6348 1.5586 1.7109 1.8262 1.7422 2.1133 1.6035 2.2207 1.2168 1.6348c1.8148 1.9544 3.0263 2.586 5.8965 2.25 2.7645-0.93164 3.3018-3.8748 2.582-6.7754-0.28725-1.8671-0.90678-3.6046-1.5215-5.3984-0.30845-0.99912-1.7543-4.0901-3.5098-6.5547l-3.377-4.6543c-1.0806-1.1533-1.8497-2.3077-3.2539-3.4609l-2.0254-1.7168c-0.20418-0.06901-0.39948-0.10346-0.58399-0.09375zm-76.637 12.502c-1.5772 0.02374-3.1782 0.10342-4.7812 0.21875-6.3768 0.4588-12.603 2.723-17.266 5.3242-2.7577 1.312-8.1035 5.752-8.1035 5.752-5.9775 6.994-11.783 13.352-16.42 20.818l-12.547 15.436-9.4277 12.014-10.037 12.395c-2.824 4.3599-5.3707 7.7903-6.6152 12.699-0.31815 1.3171-0.4096 2.7856-0.60938 4.1816l3.8027-0.5332 10.645-1.291c6.2645-0.87638 12.634-1.7673 18.842-2.3203 4.2837-1.1207 6.8371-2.063 9.6738-5.8164 1.6889-3.301 2.1757-4.442 1.9004-8.4414-0.076-0.30415-1.3691-9.9609-1.3691-9.9609-0.64205-4.1673-0.95522-7.7336-2.1094-11.049-1.4275-2.9991-1.4246-6.9173-0.28516-10.057 1.9223-4.5152 3.5012-6.8455 7.3379-10.297 5.3164-4.546 10.993-7.8106 18.021-8.0605l11.947 0.12109c3.9933 0.09127 8.2289 0.66752 12.395 1.1035 4.1616 0.37754 7.7061 1.8034 11.471 2.8047 4.3084 1.5321 9.6949 3.6549 13.535 7.3008l0.45703-0.45703-0.42578-6.5859c-0.32407-3.2179-0.33866-6.4364-0.97265-9.6543-1.9227-3.26-4.5979-5.9823-7.5742-8.5488 0 0-3.9783-3.4611-8.4668-5.1504-3.7627-1.5739-8.286-2.0165-13.018-1.9453zm-9.4492 25.871c-1.0451 0.0053-2.0856 0.02168-3.1152 0.04297l-7.3496 0.41602c-1.6321 0.0304-3.3778 0.10526-5.8613 0.77344-4.2967 1.3369-4.908 2.468-8.1602 5.0098-1.1953 1.3251-3.1136 2.6921-4.0254 4.3574-0.79548 1.2248-1.5149 2.4381-1.8809 3.6016-1.0186 2.5386-0.96594 2.8329-0.42969 5.4766l1.668 6.9902 1.0215 8.5488 1.2812 7.9277c0.37513 3.3754 0.12313 4.4127-0.0156 6.1894-0.0565 1.0652-0.5514 2.1301-0.88867 3.1953-0.64425 1.4454-1.1952 2.9274-2.3125 4.1953-1.4588 1.9243-3.0267 3.2603-5.1074 4.3555l-6.4863 2.4805c-5.6907 0.22362-11.021 0.75645-19.055 2.0352-5.5004 1.363-8.6235 1.0581-14.301 1.7207-2.3022 0.5919-4.109 1.3356-5.9668 3.0957-1.4312 1.343-3.0979 2.6134-4.3047 4.1621-0.3226 5.538 0.63281 10.469 0.63281 10.469 0.73566 3.713 2.3526 6.921 4.0547 10.246 1.2487 1.9338 3.0349 3.3315 4.5625 4.9863 0.52453-0.66036 1.0587-1.3165 1.8867-1.8555 2.7993-1.7161 4.2717-1.9327 6.3398-2.0684 1.2158-0.0134 2.363 0.0731 3.332 0.42969 4.2218 1.7494 4.9208 4.2244 5.7539 7.957l2.2051-0.16211c3.7152-0.0856 7.3884-0.59434 11.072-1.0371 4.0897-0.86389 8.036-2.5433 11.738-4.3828l-0.33594-2.1074c-0.0587-2.259 0.82231-3.928 1.8809-5.5918 1.2926-1.2796 2.652-2.4829 4.3027-3.0645 2.2979-0.78498 4.0598-0.59908 6.3652-0.21484 1.511 0.43899 2.6758 1.0263 3.6875 2.1504 1.7618-0.53615 3.1757-1.7698 4.6777-2.7949l6.2754-4.8711 7.418-6.8652 10.879-12.244 6.5059-7.957 4.7324-6.9902 4.3555-7.7969 4.8438-7.9043c2.3107-4.2924 3.853-8.9058 5.2852-13.533l1.6445-7.6504-3.9727-3.125c-4.127-2.4973-8.4193-4.0945-12.963-5.5859-4.2628-1.4476-7.951-1.9365-12.48-2.5742-3.0758-0.36593-6.2554-0.45154-9.3906-0.43555zm-26.52 89.872c-1.1702-0.0308-1.5293 0.41479-2.1406 1.334-0.55077 1.743-0.5436 3.9941 0.17773 5.791 0.0269 0.10755 1.3789 2.9941 1.3789 2.9941l1.7402 3.0547 2.1191 3.0625 2.5781 3.1836 2.2656 2.4102 1.668 1.6328 3.123 2.6484 3.3535 2.252 3.9883 2.4062 1.1465 0.90039 1.1621 0.7793c0.4694 0.23482 1.0221 0.52543 1.5527 0.5918 0.4368 0.0552 0.91868 0.10978 1.3848 0.0332 0.44542-0.10802 0.83832-0.35777 1.1934-0.64649 0.35752-0.34051 0.69908-0.71929 0.76172-1.2422l0.0664-1.373c0.0124-0.49286-0.1353-0.98566-0.20312-1.4785-0.0638-0.49555-0.40364-1.0621-0.70117-1.5723-0.33254-0.44711-0.56575-0.81443-1.4219-1.3301l-2.666-1.5312-1.8535-1.2363-2.3398-1.4785-2.6348-1.9102-2.1504-1.8535-2.043-2.1504-2.043-2.1777-1.9863-2.0664-1.8574-2.5586c-0.41852-0.7211-0.83734-1.3404-1.2559-2.1992l-0.67187-1.8457c-0.17185-0.59012-0.3622-1.2373-0.51563-1.7891-0.12865-0.34284-0.22859-0.67684-0.49218-1.1602-0.55859-0.71064-0.61333-0.76467-1.082-1.0723-0.36332-0.27495-0.74756-0.43771-1.6016-0.40234zm-39.053 8.1211c-0.82885-0.0669-1.7252 0.20579-1.8203 0.27344 0 0-0.48598 0.0209-1.3984 1.4277-0.91247 1.4067-2.584 5.5391-2.584 5.5391l-1.2188 4.3086-0.68359 4.5234-0.26562 5.2461-0.0371 4.4219c-0.00053 1.7491 0.55606 3.3125 0.83398 4.9688l0.26758 1.6738 1.1016 3.3066 1.1797 2.7754 1.0254 2.1309s0.83711 2.0901 0.95117 2.2422c0.057 0.19775 1.2251 2.1339 1.4688 2.2774 1.4493 1.2603 2.0603 1.041 3.5156 1.041 1.7845-0.40327 1.9177-1.6194 2.0488-2.7852l-0.125-1.8359c-0.0822-0.50411 0.0232-0.77914-0.56835-1.9141l-0.86524-1.4219-1.2168-2.2051-0.85351-1.9238c-0.31683-0.83641-0.18697-0.31612-0.9336-2.5996l-0.46679-2.1016-0.33399-2.6621-0.13867-3.5547 0.17969-3.7344 0.2832-3.7266c0.17169-1.9177 0.36187-3.2186 0.66602-4.8281l0.57031-2.6992 0.76172-2.623 0.60742-1.9004c0.1057-0.46748 0.077-0.99673-0.0371-1.5586-0.15649-0.82953-0.44814-1.3686-1.1406-1.8809-0.22895-0.11801-0.49716-0.17888-0.77344-0.20118zm-89.586 0.91211c0.32261 2.4598 0.85938 3.6035 0.85938 3.6035s0.45728 1.061 0.92774 1.5449c0.47047 0.48391 0.92717 0.95418 1.4648 1.3574 0.53768 0.40327 1.1964 0.82536 1.8887 1.2715 0.72618 0.46799 1.9394 1.016 2.7227 1.1484 0.785 0.13271 1.0491 0.21555 2.2051 0.25586 1.156 0.0403 1.3301 0.0527 1.3301 0.0527s-0.21255-1.0297-0.30664-1.6211c-0.0941-0.59144-0.75518-2.4384-1.4004-3.6348-0.6452-1.1963-1.6406-1.9746-1.6406-1.9746s-0.25758-0.22859-0.62891-0.43359c-0.37133-0.20498-0.85565-0.38787-1.0371-0.45508-0.36293-0.13442-1.1958-0.32261-1.9082-0.45703-0.71242-0.13443-2.6485-0.41626-4.4766-0.65821zm-6.4375 0.25586s-0.34718-0.0642-3.541 0.61914c-3.1949 0.68358-7.5129 2.6482-9.5332 3.5117-2.1582 0.92242-9.8307 5.0924-9.7383 5.2402-3.0648 2.1666-5.8539 4.5352-8.7422 7.0801-2.835 2.5445-5.4105 4.9998-7.9043 8.1777 0.0181-0.004-1.1731 1.2341-2.4102 3.5508-1.1028 2.0653-2.4339 4.8988-3.3887 8.0098-0.92496 3.014-0.49251 4.7449-0.2832 5.8808 0.20794 1.1284 0.70073 2.3648 1.8574 3.7988 0.7976 1.0511 1.9064 1.8907 3.2363 2.4062 1.5907 0.63702 3.2271 0.75083 5.0352 0.73242 0.66823-0.0417 1.1293-0.11078 1.5547-0.17968 1.3903-0.22591 1.9497-0.40333 2.8809-1.7852l1.2168-1.7031 2.6738-3.9531 4.8652-6.3438 4.5977-4.8398c1.7467-1.6111 3.4809-3.2463 5.2715-4.7695 1.5157-1.0374 2.9875-2.0846 4.6816-3.0137 2.274-1.4013 4.7748-2.0272 7.0488-2.8613l6.0645-1.1836 4.4336-0.89843c1.6031-0.36078 2.713-0.98895 3.8184-1.5488l2.3926-1.4785-0.42969-0.10742c-1.5045-0.14744-2.8402-0.0534-4.3105-0.47461-0.63761-0.21652-3.4465-1.3655-5.082-3.0293-1.8728-1.9051-3.3555-3.8262-3.3555-3.8262-0.12372-0.19795-1.9775-3.3114-2.3477-4.3008-0.33526-0.89607-0.5605-2.7108-0.5625-2.7109z" fill-rule="evenodd" transform="translate(241.74 547.26)" stroke="#9c27b0" stroke-width=".26296px" fill="#9c27b0"/>
 </g>
</svg>
