<svg width="47.096mm" height="47.096mm" version="1.1" viewBox="0 0 166.87 166.88" xmlns="http://www.w3.org/2000/svg">
 <text x="5.4745317" y="170.2249" fill="#000000" font-family="sans-serif" font-size="37.5px" letter-spacing="0px" stroke-width=".93751" word-spacing="0px" style="line-height:1.25" xml:space="preserve"><tspan x="5.4745317" y="203.40379" stroke-width=".93751"/></text>
 <g transform="translate(-74.212 -31.736)">
  <rect x="75.757" y="33.281" width="163.79" height="163.79" stroke="#000" stroke-width="3.0899"/>
  <g transform="matrix(.51474 0 0 .51474 -44.691 -241.58)">
   <path d="m470.86 542.02c-1.4824 0.021-3.0599 0.0835-4.8476 0.24023-3.223 0.39479-5.4883 0.50823-10.037 1.293-3.4396 0.72636-6.4693 1.0931-10.537 2.3691-5.6986 2.447-9.0406 3.6355-13.264 7.8965-1.9271 2.0681-3.8366 3.9531-4.9414 6.6152 3.1964-1.1623 6.1896-2.3584 9.6562-2.3574 3.1773-0.10591 6.5977-0.34822 9.7676 0.0215 2.0872 0.0752 4.9142 0.20566 7.2324 0.68555 3.3868 0.44732 5.5843 0.72805 9.0059 0.81445 4.6705 0.32216 8.2798 0.26115 13.84-1.75l5.8633-2.5195 6.7578-3.1836c5.1082-2.471 8.7662-3.279 13.764-3.877-3.3458-1.1769-6.3283-2.5004-10.068-3.5195l-8.7129-1.7266c-2.7583-0.33593-2.7071-0.73213-9.2012-0.99023-1.407-0.0125-2.7949-0.0327-4.2774-0.0117zm33.557 11.002c-1.7784-0.0104-3.5461 0.15658-5.4024 0.7207-6.7526 1.9393-10.832 3.5276-16.916 6.9844l-6.1074 2.3047c-2.407 0.73683-4.6232 1.3371-7.3926 1.4492l-9.2832-0.21484-6.1523-0.63867c-3.7762-0.44665-7.5195-1.0998-11.33-0.68359l-6.084 0.68359c-1.9656 0.31973-3.937 0.58959-5.873 1.1758-1.2338 0.38408-2.6661 0.70079-3.9043 1.5625 0.49048 2.3035 1.1726 4.5464 1.9277 6.7617 0.77425 1.7926 1.7396 3.5946 2.7207 5.3281l4.0469 5.3398 4.1367 4.6504c0.93715 0.94412 1.8657 1.3572 2.8008 2.0234 6.8523-1.3457 12.523-2.0285 19.922-1.9004 6.5205 0.97837 11.96 2.1963 17.248 5.5293 4.4363 3.3925 6.1718 5.3008 8.5293 10.285l0.6836-0.22656c3.6676-1.3014 7.5693-1.9368 11.396-2.6406 4.5045-1.287 8.8667-2.4257 13.021-4.6719l6.1504-3.2578-0.0293-2.7598c0.12771-2.23 0.45786-4.3305 1.9434-6.1504 0.95182-1.2548 1.4741-2.3353 2.9844-3.6699 1.9893-1.934 3.8167-3.423 6.4316-4.5273 8e-3 -2.7525-0.49029-4.7336-1.293-7.3008-1.152-2.4409-2.028-4.8306-3.9414-6.8008-3.7719-4.2294-8.1852-7.547-14.775-9.0098-1.893-0.14751-3.6806-0.33527-5.459-0.3457zm0.33789 6.791c0.76039-2e-3 1.4922 0.0945 2.4062 0.25586 1.8281 0.32261 2.0036 0.36183 3.7617 1.3066 1.7487 0.93973 2.049 1.1557 3.2422 2.2207 1.1967 1.0681 1.8835 1.9889 2.1524 3.2793 0.26884 1.2904 0.38254 3.1153 6e-3 4.0293-1.1573 2.1814-3.2622 3.569-5.293 3.7441-0.93299 0.21932-2.1268 0.12682-3.334 0.18945-1.35-0.15323-2.8607-0.4252-4.123-0.97266-0.89332-0.37319-1.813-0.69929-2.6191-1.334-0.89471-0.69108-2.1345-1.6342-2.5742-2.4473-0.53022-0.64218-0.832-1.4439-1.1504-2.5098-0.3907-2.1092 0.14222-3.6816 1.4785-5.4844h2e-3c0.93957-0.97144 1.4032-1.459 3.4668-1.9355 1.0299-0.23784 1.8177-0.33928 2.5781-0.3418zm-83.008 9.3965c-3.4719 1.5958-6.2956 2.5695-11.244 4.9785-4.7346 2.4213-9.0795 4.7302-14.732 8.7109-8.5352 5.6154-17.533 12.277-25.809 20.109l-11.041 10.029-13.691 14.596c-4.0932 4.7032-7.8765 9.6032-11.635 14.52-1.9831 2.9428-4.0743 5.8607-6.7051 8.7109-5.1332 6.8935-10.492 13.962-14.918 21.193-1.4279 3.14-3.4809 6.0196-5.2402 9.0215-2.7166 4.1841-5.7403 8.3902-8.0723 12.547-1.9299 4.0524-3.6724 8.2703-5.0469 12.508l-1.2422 5.0723 2.9512 0.041c1.4834 0.25097 2.7046 0.79952 3.8828 1.4473 2.124 1.7165 3.9612 3.7 5.8066 5.6992 1.4022 1.9986 2.4725 4.0824 3.334 6.3438 1.5824-0.44131 3.1714-0.79225 4.7305-1.5059 5.037-2.2465 8.9619-5.1875 13.334-7.8496 4.7398-3.0144 9.3956-6.2151 13.98-9.5703 2.6997-2.0891 6.071-3.3816 8.4961-5.8066-2.373-2.6966-2.3779-8.691-1.8281-12.689 0.17207-2.1525 1.581-11.512 0.0898-12.666-2.134 0.28599-3.588 1.7631-5.1602 3.1133l-4.0703 2.7774c-5.2848 3.2263-9.1813 0.35953-9.7871-4.5156-0.0747-3.4433 0.11118-7.58 1.0938-10.178 1.3112-3.8756 3.4809-8.3935 6.0391-10.74 1.1238-1.0201 1.8898-1.9665 3.5137-2.8476 2.471-0.74764 3.4523 1.2327 2.7852 3.1074l-2.582 2.6211c-1.9786 1.4836-3.1313 3.7303-4.3535 6.043-1.139 3.2979-1.6642 6.4031-1.7637 9.6289 0.18794 4.4379 0.75134 4.2199 4.3008 1.7207l3.7637-2.582c1.0928-0.77722 2.007-1.5997 3.5606-2.2617 0.94948-0.32034 1.8654-0.29521 2.7852-0.31836 3.896 0.11325 4.5129 3.2778 5.1055 5.5215 0.1355 1.2894 0.0571 2.5079 0.0156 3.7383l-0.39063 4.2891c-0.61126 3.0425-0.41894 6.3646-0.32226 9.1406 0.0942 1.7298 0.38975 2.9869 0.64453 4.5156 2.6285-3.5137 5.2217-5.8118 8.1738-8.6016l4.4297-4.4785 0.19336-1.2207c0.43794-2.6488 0.65175-5.1796 1.6348-8.1152 0.75858-2.4283 1.9665-4.9691 3.3184-7.457 1.7027-2.6317 3.5279-5.3042 5.6758-7.9062l6.3613-8.1367c3.4629-4.4437 6.9602-8.5948 10.598-13.32 1.7527-2.9914 3.9396-6.3219 6.5449-9.3438l5.7637-7.4453c3.1145-3.7093 6.1338-7.4867 8.9394-11.412 2.9733-3.8346 6.2442-7.49 10.201-10.525 1.5581-1.4596 3.5813-2.7253 5.377-4.0859 2.079-1.25 4.1573-2.0081 6.2363-3.0117l-4.4082-5.2695c-1.4006-1.7804-2.8478-3.3489-4.1934-5.377-0.89101-1.1652-1.5742-2.6766-2.2871-4.1387l-2.1914 1.3145c-3.0182 1.5105-6.0897 2.8097-8.998 4.7871l-8.1426 4.8145-7.5234 5.6973-9.8926 8.9258-6.668 5.6992-8.1719 7.3125-8.3887 8.3867c-2.0429 2.1687-3.9029 4.4068-5.6992 6.668-1.2739 1.4814-2.4642 3.01-3.5215 4.6152-1.9893 2.5705-3.241 5.0847-5.2441 7.7832-1.4993 0.96576-2.613 1.2144-3.8418 0.37695-0.88627-1.424-0.39948-2.3578 0.24023-3.957l6.416-9.2363c2.6881-3.5857 5.805-6.8277 8.7754-10.188 3.4542-3.4923 7.0186-6.98 10.777-10.195 2.8448-2.4216 5.4756-5.0021 8.3301-7.5488l7.748-6.8145c6.7336-6.1128 14.135-11.353 21.723-16.023 3.8-2.2228 9.7824-5.2753 12.75-6.6992l-1.6133-4.0859zm110.82 11.395c-0.1845 0.01-0.35914 0.0638-0.51953 0.16992-1.2243 0.65361-2.4346 1.3574-3.5723 2.3574-0.90828 0.78848-1.8886 1.4603-2.5488 2.6621-0.79578 1.2012-1.0448 2.1652-1.1777 3.3828-0.21839 1.4567-0.48495 2.9024-0.15234 4.4863 0.68382 1.2913 2.7754 1.6026 3.9922 2.623l1.8633 1.3691 1.6348 1.5586 1.7109 1.8262 1.7422 2.1133 1.6035 2.2207 1.2168 1.6348c1.8148 1.9544 3.0263 2.586 5.8965 2.25 2.7645-0.93164 3.3018-3.8748 2.582-6.7754-0.28725-1.8671-0.90678-3.6046-1.5215-5.3984-0.30845-0.99912-1.7543-4.0901-3.5098-6.5547l-3.377-4.6543c-1.0806-1.1533-1.8497-2.3077-3.2539-3.4609l-2.0254-1.7168c-0.20418-0.069-0.39948-0.10346-0.58399-0.0937zm-76.637 12.502c-1.5772 0.0237-3.1782 0.10342-4.7812 0.21875-6.3768 0.4588-12.603 2.723-17.266 5.3242-2.7577 1.312-8.1035 5.752-8.1035 5.752-5.9775 6.994-11.783 13.352-16.42 20.818l-12.547 15.436-9.4277 12.014-10.037 12.395c-2.824 4.3599-5.3707 7.7903-6.6152 12.699-0.31815 1.3171-0.4096 2.7856-0.60938 4.1816l3.8027-0.5332 10.645-1.291c6.2645-0.87638 12.634-1.7673 18.842-2.3203 4.2837-1.1207 6.8371-2.063 9.6738-5.8164 1.6889-3.301 2.1757-4.442 1.9004-8.4414-0.076-0.30415-1.3691-9.9609-1.3691-9.9609-0.64205-4.1673-0.95522-7.7336-2.1094-11.049-1.4275-2.9991-1.4246-6.9173-0.28516-10.057 1.9223-4.5152 3.5012-6.8455 7.3379-10.297 5.3164-4.546 10.993-7.8106 18.021-8.0605l11.947 0.12109c3.9933 0.0913 8.2289 0.66752 12.395 1.1035 4.1616 0.37754 7.7061 1.8034 11.471 2.8047 4.3084 1.5321 9.6949 3.6549 13.535 7.3008l0.45703-0.45703-0.42578-6.5859c-0.32407-3.2179-0.33866-6.4364-0.97265-9.6543-1.9227-3.26-4.5979-5.9823-7.5742-8.5488 0 0-3.9783-3.4611-8.4668-5.1504-3.7627-1.5739-8.286-2.0165-13.018-1.9453zm-9.4492 25.871c-1.0451 5e-3 -2.0856 0.0217-3.1152 0.043l-7.3496 0.41602c-1.6321 0.0304-3.3778 0.10526-5.8613 0.77344-4.2967 1.3369-4.908 2.468-8.1602 5.0098-1.1953 1.3251-3.1136 2.6921-4.0254 4.3574-0.79548 1.2248-1.5149 2.4381-1.8809 3.6016-1.0186 2.5386-0.96594 2.8329-0.42969 5.4766l1.668 6.9902 1.0215 8.5488 1.2812 7.9277c0.37513 3.3754 0.12313 4.4127-0.0156 6.1894-0.0565 1.0652-0.5514 2.1301-0.88867 3.1953-0.64425 1.4454-1.1952 2.9274-2.3125 4.1953-1.4588 1.9243-3.0267 3.2603-5.1074 4.3555l-6.4863 2.4805c-5.6907 0.22362-11.021 0.75645-19.055 2.0352-5.5004 1.363-8.6235 1.0581-14.301 1.7207-2.3022 0.5919-4.109 1.3356-5.9668 3.0957-1.4312 1.343-3.0979 2.6134-4.3047 4.1621-0.3226 5.538 0.63281 10.469 0.63281 10.469 0.73566 3.713 2.3526 6.921 4.0547 10.246 1.2487 1.9338 3.0349 3.3315 4.5625 4.9863 0.52453-0.66036 1.0587-1.3165 1.8867-1.8555 2.7993-1.7161 4.2717-1.9327 6.3398-2.0684 1.2158-0.0134 2.363 0.0731 3.332 0.42969 4.2218 1.7494 4.9208 4.2244 5.7539 7.957l2.2051-0.16211c3.7152-0.0856 7.3884-0.59434 11.072-1.0371 4.0897-0.86389 8.036-2.5433 11.738-4.3828l-0.33594-2.1074c-0.0587-2.259 0.82231-3.928 1.8809-5.5918 1.2926-1.2796 2.652-2.4829 4.3027-3.0645 2.2979-0.78498 4.0598-0.59908 6.3652-0.21484 1.511 0.43899 2.6758 1.0263 3.6875 2.1504 1.7618-0.53615 3.1757-1.7698 4.6777-2.7949l6.2754-4.8711 7.418-6.8652 10.879-12.244 6.5059-7.957 4.7324-6.9902 4.3555-7.7969 4.8438-7.9043c2.3107-4.2924 3.853-8.9058 5.2852-13.533l1.6445-7.6504-3.9727-3.125c-4.127-2.4973-8.4193-4.0945-12.963-5.5859-4.2628-1.4476-7.951-1.9365-12.48-2.5742-3.0758-0.36593-6.2554-0.45154-9.3906-0.43555zm-26.52 89.872c-1.1702-0.0308-1.5293 0.41479-2.1406 1.334-0.55077 1.743-0.5436 3.9941 0.17773 5.791 0.0269 0.10755 1.3789 2.9941 1.3789 2.9941l1.7402 3.0547 2.1191 3.0625 2.5781 3.1836 2.2656 2.4102 1.668 1.6328 3.123 2.6484 3.3535 2.252 3.9883 2.4062 1.1465 0.90039 1.1621 0.7793c0.4694 0.23482 1.0221 0.52543 1.5527 0.5918 0.4368 0.0552 0.91868 0.10978 1.3848 0.0332 0.44542-0.10802 0.83832-0.35777 1.1934-0.64649 0.35752-0.34051 0.69908-0.71929 0.76172-1.2422l0.0664-1.373c0.0124-0.49286-0.1353-0.98566-0.20312-1.4785-0.0638-0.49555-0.40364-1.0621-0.70117-1.5723-0.33254-0.44711-0.56575-0.81443-1.4219-1.3301l-2.666-1.5312-1.8535-1.2363-2.3398-1.4785-2.6348-1.9102-2.1504-1.8535-2.043-2.1504-2.043-2.1777-1.9863-2.0664-1.8574-2.5586c-0.41852-0.7211-0.83734-1.3404-1.2559-2.1992l-0.67187-1.8457c-0.17185-0.59012-0.3622-1.2373-0.51563-1.7891-0.12865-0.34284-0.22859-0.67684-0.49218-1.1602-0.55859-0.71064-0.61333-0.76467-1.082-1.0723-0.36332-0.27495-0.74756-0.43771-1.6016-0.40234zm-39.053 8.1211c-0.82885-0.0669-1.7252 0.20579-1.8203 0.27344 0 0-0.48598 0.0209-1.3984 1.4277-0.91247 1.4067-2.584 5.5391-2.584 5.5391l-1.2188 4.3086-0.68359 4.5234-0.26562 5.2461-0.0371 4.4219c-5.3e-4 1.7491 0.55606 3.3125 0.83398 4.9688l0.26758 1.6738 1.1016 3.3066 1.1797 2.7754 1.0254 2.1309s0.83711 2.0901 0.95117 2.2422c0.057 0.19775 1.2251 2.1339 1.4688 2.2774 1.4493 1.2603 2.0603 1.041 3.5156 1.041 1.7845-0.40327 1.9177-1.6194 2.0488-2.7852l-0.125-1.8359c-0.0822-0.50411 0.0232-0.77914-0.56835-1.9141l-0.86524-1.4219-1.2168-2.2051-0.85351-1.9238c-0.31683-0.83641-0.18697-0.31612-0.9336-2.5996l-0.46679-2.1016-0.33399-2.6621-0.13867-3.5547 0.17969-3.7344 0.2832-3.7266c0.17169-1.9177 0.36187-3.2186 0.66602-4.8281l0.57031-2.6992 0.76172-2.623 0.60742-1.9004c0.1057-0.46748 0.077-0.99673-0.0371-1.5586-0.15649-0.82953-0.44814-1.3686-1.1406-1.8809-0.22895-0.11801-0.49716-0.17888-0.77344-0.20118zm-89.586 0.91211c0.32261 2.4598 0.85938 3.6035 0.85938 3.6035s0.45728 1.061 0.92774 1.5449c0.47047 0.48391 0.92717 0.95418 1.4648 1.3574 0.53768 0.40327 1.1964 0.82536 1.8887 1.2715 0.72618 0.46799 1.9394 1.016 2.7227 1.1484 0.785 0.13271 1.0491 0.21555 2.2051 0.25586 1.156 0.0403 1.3301 0.0527 1.3301 0.0527s-0.21255-1.0297-0.30664-1.6211c-0.0941-0.59144-0.75518-2.4384-1.4004-3.6348-0.6452-1.1963-1.6406-1.9746-1.6406-1.9746s-0.25758-0.22859-0.62891-0.43359c-0.37133-0.20498-0.85565-0.38787-1.0371-0.45508-0.36293-0.13442-1.1958-0.32261-1.9082-0.45703-0.71242-0.13443-2.6485-0.41626-4.4766-0.65821zm-6.4375 0.25586s-0.34718-0.0642-3.541 0.61914c-3.1949 0.68358-7.5129 2.6482-9.5332 3.5117-2.1582 0.92242-9.8307 5.0924-9.7383 5.2402-3.0648 2.1666-5.8539 4.5352-8.7422 7.0801-2.835 2.5445-5.4105 4.9998-7.9043 8.1777 0.0181-4e-3 -1.1731 1.2341-2.4102 3.5508-1.1028 2.0653-2.4339 4.8988-3.3887 8.0098-0.92496 3.014-0.49251 4.7449-0.2832 5.8808 0.20794 1.1284 0.70073 2.3648 1.8574 3.7988 0.7976 1.0511 1.9064 1.8907 3.2363 2.4062 1.5907 0.63702 3.2271 0.75083 5.0352 0.73242 0.66823-0.0417 1.1293-0.11078 1.5547-0.17968 1.3903-0.22591 1.9497-0.40333 2.8809-1.7852l1.2168-1.7031 2.6738-3.9531 4.8652-6.3438 4.5977-4.8398c1.7467-1.6111 3.4809-3.2463 5.2715-4.7695 1.5157-1.0374 2.9875-2.0846 4.6816-3.0137 2.274-1.4013 4.7748-2.0272 7.0488-2.8613l6.0645-1.1836 4.4336-0.89843c1.6031-0.36078 2.713-0.98895 3.8184-1.5488l2.3926-1.4785-0.42969-0.10742c-1.5045-0.14744-2.8402-0.0534-4.3105-0.47461-0.63761-0.21652-3.4465-1.3655-5.082-3.0293-1.8728-1.9051-3.3555-3.8262-3.3555-3.8262-0.12372-0.19795-1.9775-3.3114-2.3477-4.3008-0.33526-0.89607-0.5605-2.7108-0.5625-2.7109z" fill="#9c27b0" fill-rule="evenodd" stroke="#9c27b0" stroke-width=".26296px"/>
  </g>
  <g transform="matrix(.51474 0 0 .51474 -44.691 -241.58)">
   <path d="m470.86 542.02c-1.4824 0.021-3.0599 0.0835-4.8476 0.24023-3.223 0.39479-5.4883 0.50823-10.037 1.293-3.4396 0.72636-6.4693 1.0931-10.537 2.3691-5.6986 2.447-9.0406 3.6355-13.264 7.8965-1.9271 2.0681-3.8366 3.9531-4.9414 6.6152 3.1964-1.1623 6.1896-2.3584 9.6562-2.3574 3.1773-0.10591 6.5977-0.34822 9.7676 0.0215 2.0872 0.0752 4.9142 0.20566 7.2324 0.68555 3.3868 0.44732 5.5843 0.72805 9.0059 0.81445 4.6705 0.32216 8.2798 0.26115 13.84-1.75l5.8633-2.5195 6.7578-3.1836c5.1082-2.471 8.7662-3.279 13.764-3.877-3.3458-1.1769-6.3283-2.5004-10.068-3.5195l-8.7129-1.7266c-2.7583-0.33593-2.7071-0.73213-9.2012-0.99023-1.407-0.0125-2.7949-0.0327-4.2774-0.0117zm33.557 11.002c-1.7784-0.0104-3.5461 0.15658-5.4024 0.7207-6.7526 1.9393-10.832 3.5276-16.916 6.9844l-6.1074 2.3047c-2.407 0.73683-4.6232 1.3371-7.3926 1.4492l-9.2832-0.21484-6.1523-0.63867c-3.7762-0.44665-7.5195-1.0998-11.33-0.68359l-6.084 0.68359c-1.9656 0.31973-3.937 0.58959-5.873 1.1758-1.2338 0.38408-2.6661 0.70079-3.9043 1.5625 0.49048 2.3035 1.1726 4.5464 1.9277 6.7617 0.77425 1.7926 1.7396 3.5946 2.7207 5.3281l4.0469 5.3398 4.1367 4.6504c0.93715 0.94412 1.8657 1.3572 2.8008 2.0234 6.8523-1.3457 12.523-2.0285 19.922-1.9004 6.5205 0.97837 11.96 2.1963 17.248 5.5293 4.4363 3.3925 6.1718 5.3008 8.5293 10.285l0.6836-0.22656c3.6676-1.3014 7.5693-1.9368 11.396-2.6406 4.5045-1.287 8.8667-2.4257 13.021-4.6719l6.1504-3.2578-0.0293-2.7598c0.12771-2.23 0.45786-4.3305 1.9434-6.1504 0.95182-1.2548 1.4741-2.3353 2.9844-3.6699 1.9893-1.934 3.8167-3.423 6.4316-4.5273 8e-3 -2.7525-0.49029-4.7336-1.293-7.3008-1.152-2.4409-2.028-4.8306-3.9414-6.8008-3.7719-4.2294-8.1852-7.547-14.775-9.0098-1.893-0.14751-3.6806-0.33527-5.459-0.3457zm0.33789 6.791c0.76039-2e-3 1.4922 0.0945 2.4062 0.25586 1.8281 0.32261 2.0036 0.36183 3.7617 1.3066 1.7487 0.93973 2.049 1.1557 3.2422 2.2207 1.1967 1.0681 1.8835 1.9889 2.1524 3.2793 0.26884 1.2904 0.38254 3.1153 6e-3 4.0293-1.1573 2.1814-3.2622 3.569-5.293 3.7441-0.93299 0.21932-2.1268 0.12682-3.334 0.18945-1.35-0.15323-2.8607-0.4252-4.123-0.97266-0.89332-0.37319-1.813-0.69929-2.6191-1.334-0.89471-0.69108-2.1345-1.6342-2.5742-2.4473-0.53022-0.64218-0.832-1.4439-1.1504-2.5098-0.3907-2.1092 0.14222-3.6816 1.4785-5.4844h2e-3c0.93957-0.97144 1.4032-1.459 3.4668-1.9355 1.0299-0.23784 1.8177-0.33928 2.5781-0.3418zm-83.008 9.3965c-3.4719 1.5958-6.2956 2.5695-11.244 4.9785-4.7346 2.4213-9.0795 4.7302-14.732 8.7109-8.5352 5.6154-17.533 12.277-25.809 20.109l-11.041 10.029-13.691 14.596c-4.0932 4.7032-7.8765 9.6032-11.635 14.52-1.9831 2.9428-4.0743 5.8607-6.7051 8.7109-5.1332 6.8935-10.492 13.962-14.918 21.193-1.4279 3.14-3.4809 6.0196-5.2402 9.0215-2.7166 4.1841-5.7403 8.3902-8.0723 12.547-1.9299 4.0524-3.6724 8.2703-5.0469 12.508l-1.2422 5.0723 2.9512 0.041c1.4834 0.25097 2.7046 0.79952 3.8828 1.4473 2.124 1.7165 3.9612 3.7 5.8066 5.6992 1.4022 1.9986 2.4725 4.0824 3.334 6.3438 1.5824-0.44131 3.1714-0.79225 4.7305-1.5059 5.037-2.2465 8.9619-5.1875 13.334-7.8496 4.7398-3.0144 9.3956-6.2151 13.98-9.5703 2.6997-2.0891 6.071-3.3816 8.4961-5.8066-2.373-2.6966-2.3779-8.691-1.8281-12.689 0.17207-2.1525 1.581-11.512 0.0898-12.666-2.134 0.28599-3.588 1.7631-5.1602 3.1133l-4.0703 2.7774c-5.2848 3.2263-9.1813 0.35953-9.7871-4.5156-0.0747-3.4433 0.11118-7.58 1.0938-10.178 1.3112-3.8756 3.4809-8.3935 6.0391-10.74 1.1238-1.0201 1.8898-1.9665 3.5137-2.8476 2.471-0.74764 3.4523 1.2327 2.7852 3.1074l-2.582 2.6211c-1.9786 1.4836-3.1313 3.7303-4.3535 6.043-1.139 3.2979-1.6642 6.4031-1.7637 9.6289 0.18794 4.4379 0.75134 4.2199 4.3008 1.7207l3.7637-2.582c1.0928-0.77722 2.007-1.5997 3.5606-2.2617 0.94948-0.32034 1.8654-0.29521 2.7852-0.31836 3.896 0.11325 4.5129 3.2778 5.1055 5.5215 0.1355 1.2894 0.0571 2.5079 0.0156 3.7383l-0.39063 4.2891c-0.61126 3.0425-0.41894 6.3646-0.32226 9.1406 0.0942 1.7298 0.38975 2.9869 0.64453 4.5156 2.6285-3.5137 5.2217-5.8118 8.1738-8.6016l4.4297-4.4785 0.19336-1.2207c0.43794-2.6488 0.65175-5.1796 1.6348-8.1152 0.75858-2.4283 1.9665-4.9691 3.3184-7.457 1.7027-2.6317 3.5279-5.3042 5.6758-7.9062l6.3613-8.1367c3.4629-4.4437 6.9602-8.5948 10.598-13.32 1.7527-2.9914 3.9396-6.3219 6.5449-9.3438l5.7637-7.4453c3.1145-3.7093 6.1338-7.4867 8.9394-11.412 2.9733-3.8346 6.2442-7.49 10.201-10.525 1.5581-1.4596 3.5813-2.7253 5.377-4.0859 2.079-1.25 4.1573-2.0081 6.2363-3.0117l-4.4082-5.2695c-1.4006-1.7804-2.8478-3.3489-4.1934-5.377-0.89101-1.1652-1.5742-2.6766-2.2871-4.1387l-2.1914 1.3145c-3.0182 1.5105-6.0897 2.8097-8.998 4.7871l-8.1426 4.8145-7.5234 5.6973-9.8926 8.9258-6.668 5.6992-8.1719 7.3125-8.3887 8.3867c-2.0429 2.1687-3.9029 4.4068-5.6992 6.668-1.2739 1.4814-2.4642 3.01-3.5215 4.6152-1.9893 2.5705-3.241 5.0847-5.2441 7.7832-1.4993 0.96576-2.613 1.2144-3.8418 0.37695-0.88627-1.424-0.39948-2.3578 0.24023-3.957l6.416-9.2363c2.6881-3.5857 5.805-6.8277 8.7754-10.188 3.4542-3.4923 7.0186-6.98 10.777-10.195 2.8448-2.4216 5.4756-5.0021 8.3301-7.5488l7.748-6.8145c6.7336-6.1128 14.135-11.353 21.723-16.023 3.8-2.2228 9.7824-5.2753 12.75-6.6992l-1.6133-4.0859zm110.82 11.395c-0.1845 0.01-0.35914 0.0638-0.51953 0.16992-1.2243 0.65361-2.4346 1.3574-3.5723 2.3574-0.90828 0.78848-1.8886 1.4603-2.5488 2.6621-0.79578 1.2012-1.0448 2.1652-1.1777 3.3828-0.21839 1.4567-0.48495 2.9024-0.15234 4.4863 0.68382 1.2913 2.7754 1.6026 3.9922 2.623l1.8633 1.3691 1.6348 1.5586 1.7109 1.8262 1.7422 2.1133 1.6035 2.2207 1.2168 1.6348c1.8148 1.9544 3.0263 2.586 5.8965 2.25 2.7645-0.93164 3.3018-3.8748 2.582-6.7754-0.28725-1.8671-0.90678-3.6046-1.5215-5.3984-0.30845-0.99912-1.7543-4.0901-3.5098-6.5547l-3.377-4.6543c-1.0806-1.1533-1.8497-2.3077-3.2539-3.4609l-2.0254-1.7168c-0.20418-0.069-0.39948-0.10346-0.58399-0.0937zm-76.637 12.502c-1.5772 0.0237-3.1782 0.10342-4.7812 0.21875-6.3768 0.4588-12.603 2.723-17.266 5.3242-2.7577 1.312-8.1035 5.752-8.1035 5.752-5.9775 6.994-11.783 13.352-16.42 20.818l-12.547 15.436-9.4277 12.014-10.037 12.395c-2.824 4.3599-5.3707 7.7903-6.6152 12.699-0.31815 1.3171-0.4096 2.7856-0.60938 4.1816l3.8027-0.5332 10.645-1.291c6.2645-0.87638 12.634-1.7673 18.842-2.3203 4.2837-1.1207 6.8371-2.063 9.6738-5.8164 1.6889-3.301 2.1757-4.442 1.9004-8.4414-0.076-0.30415-1.3691-9.9609-1.3691-9.9609-0.64205-4.1673-0.95522-7.7336-2.1094-11.049-1.4275-2.9991-1.4246-6.9173-0.28516-10.057 1.9223-4.5152 3.5012-6.8455 7.3379-10.297 5.3164-4.546 10.993-7.8106 18.021-8.0605l11.947 0.12109c3.9933 0.0913 8.2289 0.66752 12.395 1.1035 4.1616 0.37754 7.7061 1.8034 11.471 2.8047 4.3084 1.5321 9.6949 3.6549 13.535 7.3008l0.45703-0.45703-0.42578-6.5859c-0.32407-3.2179-0.33866-6.4364-0.97265-9.6543-1.9227-3.26-4.5979-5.9823-7.5742-8.5488 0 0-3.9783-3.4611-8.4668-5.1504-3.7627-1.5739-8.286-2.0165-13.018-1.9453zm-9.4492 25.871c-1.0451 5e-3 -2.0856 0.0217-3.1152 0.043l-7.3496 0.41602c-1.6321 0.0304-3.3778 0.10526-5.8613 0.77344-4.2967 1.3369-4.908 2.468-8.1602 5.0098-1.1953 1.3251-3.1136 2.6921-4.0254 4.3574-0.79548 1.2248-1.5149 2.4381-1.8809 3.6016-1.0186 2.5386-0.96594 2.8329-0.42969 5.4766l1.668 6.9902 1.0215 8.5488 1.2812 7.9277c0.37513 3.3754 0.12313 4.4127-0.0156 6.1894-0.0565 1.0652-0.5514 2.1301-0.88867 3.1953-0.64425 1.4454-1.1952 2.9274-2.3125 4.1953-1.4588 1.9243-3.0267 3.2603-5.1074 4.3555l-6.4863 2.4805c-5.6907 0.22362-11.021 0.75645-19.055 2.0352-5.5004 1.363-8.6235 1.0581-14.301 1.7207-2.3022 0.5919-4.109 1.3356-5.9668 3.0957-1.4312 1.343-3.0979 2.6134-4.3047 4.1621-0.3226 5.538 0.63281 10.469 0.63281 10.469 0.73566 3.713 2.3526 6.921 4.0547 10.246 1.2487 1.9338 3.0349 3.3315 4.5625 4.9863 0.52453-0.66036 1.0587-1.3165 1.8867-1.8555 2.7993-1.7161 4.2717-1.9327 6.3398-2.0684 1.2158-0.0134 2.363 0.0731 3.332 0.42969 4.2218 1.7494 4.9208 4.2244 5.7539 7.957l2.2051-0.16211c3.7152-0.0856 7.3884-0.59434 11.072-1.0371 4.0897-0.86389 8.036-2.5433 11.738-4.3828l-0.33594-2.1074c-0.0587-2.259 0.82231-3.928 1.8809-5.5918 1.2926-1.2796 2.652-2.4829 4.3027-3.0645 2.2979-0.78498 4.0598-0.59908 6.3652-0.21484 1.511 0.43899 2.6758 1.0263 3.6875 2.1504 1.7618-0.53615 3.1757-1.7698 4.6777-2.7949l6.2754-4.8711 7.418-6.8652 10.879-12.244 6.5059-7.957 4.7324-6.9902 4.3555-7.7969 4.8438-7.9043c2.3107-4.2924 3.853-8.9058 5.2852-13.533l1.6445-7.6504-3.9727-3.125c-4.127-2.4973-8.4193-4.0945-12.963-5.5859-4.2628-1.4476-7.951-1.9365-12.48-2.5742-3.0758-0.36593-6.2554-0.45154-9.3906-0.43555zm-26.52 89.872c-1.1702-0.0308-1.5293 0.41479-2.1406 1.334-0.55077 1.743-0.5436 3.9941 0.17773 5.791 0.0269 0.10755 1.3789 2.9941 1.3789 2.9941l1.7402 3.0547 2.1191 3.0625 2.5781 3.1836 2.2656 2.4102 1.668 1.6328 3.123 2.6484 3.3535 2.252 3.9883 2.4062 1.1465 0.90039 1.1621 0.7793c0.4694 0.23482 1.0221 0.52543 1.5527 0.5918 0.4368 0.0552 0.91868 0.10978 1.3848 0.0332 0.44542-0.10802 0.83832-0.35777 1.1934-0.64649 0.35752-0.34051 0.69908-0.71929 0.76172-1.2422l0.0664-1.373c0.0124-0.49286-0.1353-0.98566-0.20312-1.4785-0.0638-0.49555-0.40364-1.0621-0.70117-1.5723-0.33254-0.44711-0.56575-0.81443-1.4219-1.3301l-2.666-1.5312-1.8535-1.2363-2.3398-1.4785-2.6348-1.9102-2.1504-1.8535-2.043-2.1504-2.043-2.1777-1.9863-2.0664-1.8574-2.5586c-0.41852-0.7211-0.83734-1.3404-1.2559-2.1992l-0.67187-1.8457c-0.17185-0.59012-0.3622-1.2373-0.51563-1.7891-0.12865-0.34284-0.22859-0.67684-0.49218-1.1602-0.55859-0.71064-0.61333-0.76467-1.082-1.0723-0.36332-0.27495-0.74756-0.43771-1.6016-0.40234zm-39.053 8.1211c-0.82885-0.0669-1.7252 0.20579-1.8203 0.27344 0 0-0.48598 0.0209-1.3984 1.4277-0.91247 1.4067-2.584 5.5391-2.584 5.5391l-1.2188 4.3086-0.68359 4.5234-0.26562 5.2461-0.0371 4.4219c-5.3e-4 1.7491 0.55606 3.3125 0.83398 4.9688l0.26758 1.6738 1.1016 3.3066 1.1797 2.7754 1.0254 2.1309s0.83711 2.0901 0.95117 2.2422c0.057 0.19775 1.2251 2.1339 1.4688 2.2774 1.4493 1.2603 2.0603 1.041 3.5156 1.041 1.7845-0.40327 1.9177-1.6194 2.0488-2.7852l-0.125-1.8359c-0.0822-0.50411 0.0232-0.77914-0.56835-1.9141l-0.86524-1.4219-1.2168-2.2051-0.85351-1.9238c-0.31683-0.83641-0.18697-0.31612-0.9336-2.5996l-0.46679-2.1016-0.33399-2.6621-0.13867-3.5547 0.17969-3.7344 0.2832-3.7266c0.17169-1.9177 0.36187-3.2186 0.66602-4.8281l0.57031-2.6992 0.76172-2.623 0.60742-1.9004c0.1057-0.46748 0.077-0.99673-0.0371-1.5586-0.15649-0.82953-0.44814-1.3686-1.1406-1.8809-0.22895-0.11801-0.49716-0.17888-0.77344-0.20118zm-89.586 0.91211c0.32261 2.4598 0.85938 3.6035 0.85938 3.6035s0.45728 1.061 0.92774 1.5449c0.47047 0.48391 0.92717 0.95418 1.4648 1.3574 0.53768 0.40327 1.1964 0.82536 1.8887 1.2715 0.72618 0.46799 1.9394 1.016 2.7227 1.1484 0.785 0.13271 1.0491 0.21555 2.2051 0.25586 1.156 0.0403 1.3301 0.0527 1.3301 0.0527s-0.21255-1.0297-0.30664-1.6211c-0.0941-0.59144-0.75518-2.4384-1.4004-3.6348-0.6452-1.1963-1.6406-1.9746-1.6406-1.9746s-0.25758-0.22859-0.62891-0.43359c-0.37133-0.20498-0.85565-0.38787-1.0371-0.45508-0.36293-0.13442-1.1958-0.32261-1.9082-0.45703-0.71242-0.13443-2.6485-0.41626-4.4766-0.65821zm-6.4375 0.25586s-0.34718-0.0642-3.541 0.61914c-3.1949 0.68358-7.5129 2.6482-9.5332 3.5117-2.1582 0.92242-9.8307 5.0924-9.7383 5.2402-3.0648 2.1666-5.8539 4.5352-8.7422 7.0801-2.835 2.5445-5.4105 4.9998-7.9043 8.1777 0.0181-4e-3 -1.1731 1.2341-2.4102 3.5508-1.1028 2.0653-2.4339 4.8988-3.3887 8.0098-0.92496 3.014-0.49251 4.7449-0.2832 5.8808 0.20794 1.1284 0.70073 2.3648 1.8574 3.7988 0.7976 1.0511 1.9064 1.8907 3.2363 2.4062 1.5907 0.63702 3.2271 0.75083 5.0352 0.73242 0.66823-0.0417 1.1293-0.11078 1.5547-0.17968 1.3903-0.22591 1.9497-0.40333 2.8809-1.7852l1.2168-1.7031 2.6738-3.9531 4.8652-6.3438 4.5977-4.8398c1.7467-1.6111 3.4809-3.2463 5.2715-4.7695 1.5157-1.0374 2.9875-2.0846 4.6816-3.0137 2.274-1.4013 4.7748-2.0272 7.0488-2.8613l6.0645-1.1836 4.4336-0.89843c1.6031-0.36078 2.713-0.98895 3.8184-1.5488l2.3926-1.4785-0.42969-0.10742c-1.5045-0.14744-2.8402-0.0534-4.3105-0.47461-0.63761-0.21652-3.4465-1.3655-5.082-3.0293-1.8728-1.9051-3.3555-3.8262-3.3555-3.8262-0.12372-0.19795-1.9775-3.3114-2.3477-4.3008-0.33526-0.89607-0.5605-2.7108-0.5625-2.7109z" fill="#9c27b0" fill-rule="evenodd" stroke="#9c27b0" stroke-width=".26296px"/>
  </g>
  <path d="m197.68 37.413c-0.76305 0.01081-1.575 0.04298-2.4952 0.12366-1.659 0.20321-2.825 0.2616-5.1664 0.66556-1.7705 0.37388-3.33 0.56266-5.4238 1.2195-2.9333 1.2596-4.6535 1.8713-6.8275 4.0646-0.99195 1.0645-1.9748 2.0348-2.5435 3.4051 1.6453-0.59828 3.186-1.214 4.9704-1.2134 1.6355-0.05452 3.3961-0.17924 5.0277 0.01107 1.0744 0.03871 2.5295 0.10586 3.7228 0.35288 1.7433 0.23025 2.8744 0.37476 4.6357 0.41923 2.4041 0.16583 4.2619 0.13442 7.124-0.90079l3.0181-1.2969 3.4785-1.6387c2.6294-1.2719 4.5123-1.6878 7.0848-1.9956-1.7222-0.60579-3.2574-1.287-5.1824-1.8116l-4.4848-0.88874c-1.4198-0.17292-1.3934-0.37685-4.7362-0.50971-0.72424-0.0064-1.4386-0.01683-2.2017-6e-3zm17.273 5.6631c-0.91541-0.0054-1.8253 0.0806-2.7808 0.37097-3.4758 0.99823-5.5756 1.8158-8.7073 3.5951l-3.1437 1.1863c-1.239 0.37927-2.3797 0.68826-3.8052 0.74596l-4.7784-0.11059-3.1668-0.32875c-1.9438-0.22991-3.8706-0.56611-5.832-0.35187l-3.1317 0.35187c-1.0118 0.16458-2.0265 0.30348-3.023 0.60523-0.63508 0.1977-1.3723 0.36072-2.0097 0.80428 0.25247 1.1857 0.60358 2.3402 0.99226 3.4805 0.39854 0.92272 0.89544 1.8503 1.4004 2.7426l2.0831 2.7486 2.1293 2.3937c0.48239 0.48597 0.96035 0.6986 1.4417 1.0415 3.5271-0.69268 6.446-1.0441 10.255-0.97821 3.3564 0.5036 6.1563 1.1305 8.8782 2.8461 2.2835 1.7462 3.1768 2.7285 4.3904 5.2941l0.35187-0.11662c1.8878-0.66988 3.8962-0.99694 5.866-1.3592 2.3186-0.66247 4.564-1.2486 6.7024-2.4048l3.1658-1.6769-0.0151-1.4206c0.0657-1.1479 0.23568-2.2291 1.0003-3.1658 0.48994-0.64589 0.75877-1.2021 1.5362-1.889 1.024-0.9955 1.9646-1.7619 3.3106-2.3304 4e-3 -1.4168-0.25237-2.4366-0.66555-3.758-0.59298-1.2564-1.0439-2.4865-2.0288-3.5006-1.9415-2.177-4.2132-3.8847-7.6052-4.6377-0.9744-0.07593-1.8945-0.17258-2.81-0.17794zm0.17392 3.4956c0.3914-1e-3 0.76809 0.04864 1.2386 0.1317 0.94099 0.16606 1.0313 0.18625 1.9363 0.67256 0.90012 0.48371 1.0547 0.59488 1.6689 1.1431 0.61599 0.54979 0.96951 1.0238 1.1079 1.688 0.13838 0.66422 0.19691 1.6036 3e-3 2.074-0.59571 1.1228-1.6792 1.8371-2.7245 1.9272-0.48024 0.11289-1.0947 0.06528-1.7161 0.09752-0.69489-0.07887-1.4725-0.21887-2.1223-0.50066-0.45983-0.19209-0.93322-0.35995-1.3482-0.68666-0.46054-0.35572-1.0987-0.84118-1.325-1.2597-0.27292-0.33055-0.42826-0.74323-0.59215-1.2919-0.20111-1.0857 0.0732-1.8951 0.76104-2.823h1e-3c0.48363-0.50004 0.72228-0.751 1.7845-0.99627 0.53013-0.12243 0.93564-0.17464 1.327-0.17594zm-42.727 4.8367c-1.7871 0.82142-3.2406 1.3226-5.7877 2.5626-2.4371 1.2463-4.6736 2.4348-7.5831 4.4838-4.3934 2.8905-9.0249 6.3194-13.285 10.351l-5.6832 5.1623-7.0473 7.5131c-2.1069 2.4209-4.0543 4.9431-5.989 7.474-1.0208 1.5148-2.0972 3.0167-3.4514 4.4838-2.6422 3.5483-5.4006 7.1868-7.6788 10.909-0.735 1.6163-1.7918 3.0985-2.6973 4.6437-1.3983 2.1537-2.9547 4.3188-4.1551 6.4584-0.99339 2.0859-1.8903 4.257-2.5978 6.4383l-0.6394 2.6109 1.5191 0.0211c0.76356 0.12918 1.3922 0.41154 1.9986 0.74498 1.0933 0.88355 2.039 1.9045 2.9889 2.9336 0.72177 1.0288 1.2727 2.1014 1.7161 3.2654 0.81452-0.22716 1.6324-0.4078 2.435-0.77514 2.5927-1.1564 4.613-2.6702 6.8635-4.0405 2.4398-1.5516 4.8363-3.1992 7.196-4.9262 1.3896-1.0753 3.125-1.7406 4.3733-2.9889-1.2215-1.388-1.224-4.4736-0.94099-6.5315 0.0886-1.108 0.8138-5.9256 0.0462-6.5197-1.0984 0.14721-1.8469 0.90753-2.6561 1.6025l-2.0951 1.4296c-2.7203 1.6607-4.726 0.18507-5.0378-2.3243-0.0384-1.7724 0.0572-3.9017 0.56302-5.239 0.67492-1.9949 1.7918-4.3204 3.1086-5.5283 0.57846-0.52508 0.97275-1.0122 1.8086-1.4658 1.2719-0.38484 1.777 0.63452 1.4336 1.5995l-1.329 1.3492c-1.0185 0.76366-1.6118 1.9201-2.2409 3.1106-0.58628 1.6976-0.85662 3.2959-0.90784 4.9564 0.0967 2.2844 0.38674 2.1721 2.2138 0.88571l1.9373-1.329c0.56251-0.40007 1.0331-0.82343 1.8328-1.1642 0.48874-0.1649 0.96019-0.15196 1.4336-0.16388 2.0054 0.0583 2.323 1.6872 2.628 2.8421 0.0697 0.6637 0.0294 1.2909 8e-3 1.9242l-0.20107 2.2078c-0.31464 1.5661-0.21565 3.2761-0.16588 4.705 0.0485 0.8904 0.20062 1.5375 0.33176 2.3244 1.353-1.8086 2.6878-2.9916 4.2074-4.4276l2.2801-2.3052 0.0995-0.62834c0.22543-1.3634 0.33548-2.6661 0.8415-4.1772 0.39046-1.2499 1.0122-2.5578 1.7081-3.8384 0.87644-1.3546 1.8159-2.7303 2.9215-4.0696l3.2744-4.1883c1.7825-2.2873 3.5827-4.4241 5.4552-6.8563 0.90218-1.5398 2.0279-3.2541 3.3689-4.8096l2.9668-3.8324c1.6032-1.9093 3.1573-3.8537 4.6014-5.8742 1.5305-1.9738 3.2141-3.8554 5.2508-5.4176 0.80201-0.75131 1.8434-1.4028 2.7677-2.1032 1.0701-0.64342 2.1399-1.0336 3.21-1.5502l-2.2691-2.7124c-0.72094-0.91644-1.4659-1.7238-2.1585-2.7677-0.45863-0.59977-0.8103-1.3777-1.1772-2.1303l-1.128 0.67662c-1.5536 0.77751-3.1346 1.4463-4.6316 2.4641l-4.1913 2.4782-3.8726 2.9326-5.0921 4.5944-3.4323 2.9336-4.2064 3.764-4.318 4.3169c-1.0516 1.1163-2.009 2.2683-2.9336 3.4323-0.65573 0.76253-1.2684 1.5494-1.8126 2.3756-1.024 1.3231-1.6683 2.6173-2.6993 4.0063-0.77175 0.49711-1.345 0.6251-1.9775 0.19403-0.4562-0.73299-0.20563-1.2136 0.12366-2.0368l3.3026-4.7543c1.3837-1.8457 2.988-3.5145 4.517-5.2441 1.778-1.7976 3.6127-3.5929 5.5473-5.2477 1.4643-1.2465 2.8185-2.5748 4.2878-3.8856l3.9882-3.5077c3.466-3.1465 7.2758-5.8438 11.182-8.2476 1.956-1.1442 5.0354-2.7154 6.5629-3.4483l-0.83043-2.1032zm57.043 5.8654c-0.095 0.0051-0.18486 0.03284-0.26742 0.08746-0.63019 0.33644-1.2532 0.6987-1.8388 1.2134-0.46752 0.40586-0.97213 0.75167-1.312 1.3703-0.40961 0.6183-0.53779 1.1145-0.6062 1.7413-0.11242 0.74982-0.24963 1.494-0.0784 2.3093 0.35199 0.66468 1.4286 0.82492 2.0549 1.3502l0.95911 0.70473 0.84149 0.80227 0.88066 0.94001 0.89678 1.0878 0.82538 1.1431 0.62633 0.84149c0.93414 1.006 1.5578 1.3311 3.0352 1.1582 1.423-0.47955 1.6996-1.9945 1.329-3.4876-0.14786-0.96107-0.46675-1.8554-0.78317-2.7788-0.15877-0.51428-0.90301-2.1053-1.8066-3.3739l-1.7383-2.3957c-0.55622-0.59365-0.9521-1.1879-1.6749-1.7815l-1.0426-0.8837c-0.1051-0.03552-0.20562-0.05325-0.3006-0.04823zm-39.448 6.4352c-0.81185 0.0122-1.6359 0.05323-2.4611 0.1126-3.2824 0.23616-6.4872 1.4016-8.8875 2.7406-1.4195 0.67534-4.1712 2.9608-4.1712 2.9608-3.0768 3.6001-6.0652 6.8728-8.452 10.716l-6.4584 7.9455-4.8528 6.1841-5.1664 6.3802c-1.4536 2.2442-2.7645 4.01-3.4051 6.5366-0.16376 0.67796-0.21083 1.4338-0.31367 2.1524l1.9574-0.27446 5.4794-0.66452c3.2246-0.45111 6.5032-0.9097 9.6987-1.1944 2.205-0.57686 3.5193-1.0619 4.9795-2.9939 0.86934-1.6992 1.1199-2.2865 0.97821-4.3451-0.0391-0.15656-0.70473-5.1272-0.70473-5.1272-0.33048-2.1451-0.49168-3.9808-1.0858-5.6873-0.73479-1.5437-0.7333-3.5606-0.14679-5.1767 0.98948-2.3241 1.8022-3.5236 3.7771-5.3002 2.7365-2.34 5.6585-4.0204 9.2761-4.149l6.1496 0.06233c2.0555 0.04699 4.2357 0.3436 6.3802 0.56801 2.1421 0.19433 3.9666 0.92828 5.9046 1.4437 2.2177 0.78863 4.9903 1.8813 6.967 3.758l0.23525-0.23525-0.21917-3.39c-0.16681-1.6564-0.17432-3.3131-0.50066-4.9694-0.98968-1.678-2.3667-3.0793-3.8987-4.4004 0 0-2.0478-1.7816-4.3582-2.6511-1.9368-0.81014-4.2651-1.038-6.7008-1.0013zm-4.8639 13.317c-0.53795 0.0026-1.0735 0.01117-1.6035 0.02213l-3.7831 0.21414c-0.8401 0.01565-1.7387 0.05418-3.017 0.39812-2.2117 0.68815-2.5263 1.2704-4.2004 2.5787-0.61526 0.68208-1.6027 1.3857-2.072 2.2429-0.40946 0.63045-0.77978 1.255-0.96817 1.8539-0.52431 1.3067-0.4972 1.4582-0.22118 2.819l0.85858 3.5981 0.52581 4.4004 0.65948 4.0807c0.19309 1.7375 0.0634 2.2714-8e-3 3.1859-0.0291 0.54829-0.28383 1.0964-0.45743 1.6447-0.33162 0.744-0.61522 1.5068-1.1903 2.1595-0.7509 0.99051-1.558 1.6782-2.629 2.2419l-3.3387 1.2768c-2.9292 0.1151-5.6729 0.38937-9.8083 1.0476-2.8313 0.70159-4.4388 0.54464-7.3612 0.88571-1.185 0.30467-2.1151 0.68748-3.0713 1.5935-0.73669 0.69129-1.5946 1.3452-2.2158 2.1424-0.16605 2.8506 0.32573 5.3888 0.32573 5.3888 0.37868 1.9112 1.211 3.5625 2.0871 5.274 0.64275 0.9954 1.5622 1.7148 2.3485 2.5666 0.26999-0.33991 0.54495-0.67765 0.97115-0.95509 1.4409-0.88334 2.1988-0.99483 3.2633-1.0647 0.62582-7e-3 1.2163 0.0376 1.7151 0.22117 2.1731 0.90048 2.5329 2.1745 2.9617 4.0958l1.135-0.0834c1.9124-0.0441 3.8031-0.30593 5.6992-0.53383 2.1051-0.44468 4.1364-1.3091 6.042-2.256l-0.17292-1.0848c-0.0302-1.1628 0.42327-2.0219 0.96816-2.8783 0.66535-0.65865 1.3651-1.278 2.2148-1.5774 1.1828-0.40406 2.0897-0.30837 3.2764-0.11058 0.77777 0.22596 1.3773 0.52827 1.8981 1.1069 0.90687-0.27598 1.6346-0.91099 2.4078-1.4386l3.2302-2.5073 3.8183-3.5338 5.5998-6.3024 3.3488-4.0958 2.4359-3.5981 2.2419-4.0134 2.4933-4.0686c1.1894-2.2095 1.9833-4.5841 2.7205-6.9659l0.84648-3.9379-2.0449-1.6086c-2.1243-1.2855-4.3337-2.1076-6.6725-2.8753-2.1942-0.74513-4.0927-0.99679-6.4239-1.325-1.5832-0.18836-3.2199-0.23242-4.8337-0.22419zm-13.651 46.26c-0.60234-0.0159-0.78719 0.21351-1.1018 0.68666-0.28351 0.89719-0.27982 2.0559 0.0915 2.9808 0.0138 0.0554 0.70977 1.5412 0.70977 1.5412l0.89575 1.5724 1.0908 1.5764 1.327 1.6387 1.1662 1.2406 0.85858 0.84046 1.6075 1.3632 1.7262 1.1592 2.0529 1.2386 0.59015 0.46346 0.59817 0.40114c0.24162 0.12087 0.52612 0.27046 0.79924 0.30462 0.22483 0.0284 0.47288 0.0565 0.7128 0.0171 0.22928-0.0556 0.43152-0.18416 0.61429-0.33277 0.18403-0.17528 0.35984-0.37025 0.39209-0.63941l0.0342-0.70673c6e-3 -0.2537-0.0696-0.50736-0.10456-0.76104-0.0328-0.25508-0.20777-0.54671-0.36092-0.80932-0.17117-0.23015-0.29121-0.41922-0.7319-0.68466l-1.3723-0.78816-0.95406-0.63637-1.2044-0.76104-1.3562-0.98325-1.1069-0.95407-1.0516-1.1069-1.0516-1.1209-1.0224-1.0636-0.95607-1.317c-0.21543-0.37118-0.43101-0.68995-0.64646-1.132l-0.34583-0.95005c-0.0885-0.30376-0.18644-0.63689-0.26542-0.92092-0.0662-0.17647-0.11766-0.34839-0.25334-0.5972-0.28753-0.36579-0.31571-0.3936-0.55695-0.55195-0.18701-0.14152-0.38479-0.2253-0.8244-0.2071zm-20.102 4.1802c-0.42664-0.0344-0.88802 0.10592-0.93698 0.14075 0 0-0.25015 0.0108-0.7198 0.73489-0.46969 0.72408-1.3301 2.8512-1.3301 2.8512l-0.62736 2.2178-0.35187 2.3284-0.13672 2.7004-0.0191 2.2761c-2.7e-4 0.90033 0.28623 1.7051 0.42928 2.5576l0.13774 0.86157 0.56703 1.702 0.60724 1.4286 0.52781 1.0968s0.43089 1.0759 0.4896 1.1542c0.0293 0.10179 0.6306 1.0984 0.75605 1.1723 0.746 0.64872 1.0605 0.53584 1.8096 0.53584 0.91854-0.20758 0.98711-0.83356 1.0546-1.4336l-0.0643-0.945c-0.0423-0.25949 0.0119-0.40105-0.29255-0.98526l-0.44537-0.7319-0.62634-1.135-0.43933-0.99025c-0.16308-0.43053-0.0962-0.16272-0.48056-1.3381l-0.24027-1.0818-0.17192-1.3703-0.0714-1.8297 0.0925-1.9222 0.14578-1.9182c0.0884-0.98711 0.18627-1.6567 0.34282-2.4852l0.29356-1.3894 0.39209-1.3502 0.31266-0.9782c0.0544-0.24063 0.0396-0.51306-0.0191-0.80227-0.0805-0.42699-0.23067-0.70447-0.58711-0.96817-0.11784-0.0607-0.2559-0.0921-0.39811-0.10356zm-46.113 0.46949c0.16606 1.2662 0.44236 1.8549 0.44236 1.8549s0.23538 0.54613 0.47754 0.79522c0.24217 0.24908 0.47725 0.49115 0.75399 0.6987 0.27676 0.20758 0.61583 0.42484 0.97218 0.65449 0.37379 0.24089 0.99828 0.52297 1.4015 0.59112 0.40407 0.0683 0.54001 0.11095 1.135 0.1317 0.59504 0.0207 0.68466 0.0271 0.68466 0.0271s-0.10941-0.53003-0.15784-0.83444c-0.0484-0.30444-0.38872-1.2551-0.72084-1.871-0.33211-0.61578-0.84448-1.0164-0.84448-1.0164s-0.13259-0.11766-0.32372-0.22318c-0.19114-0.10551-0.44044-0.19965-0.53384-0.23425-0.18681-0.0692-0.61552-0.16606-0.98222-0.23525-0.36671-0.0692-1.3633-0.21426-2.3043-0.3388zm-3.3136 0.1317s-0.1787-0.033-1.8227 0.3187c-1.6445 0.35186-3.8672 1.3631-4.9071 1.8076-1.1109 0.4748-5.0602 2.6212-5.0127 2.6973-1.5776 1.1152-3.0132 2.3344-4.4999 3.6444-1.4593 1.3098-2.785 2.5736-4.0686 4.2094 0.0093-2e-3 -0.60384 0.63524-1.2406 1.8277-0.56765 1.0631-1.2528 2.5216-1.7443 4.1229-0.47611 1.5514-0.25351 2.4424-0.14577 3.0271 0.10704 0.58083 0.36069 1.2172 0.95607 1.9554 0.41055 0.54104 0.9813 0.97322 1.6658 1.2386 0.81879 0.32789 1.6611 0.38648 2.5918 0.377 0.34396-0.0215 0.58129-0.057 0.80026-0.0925 0.71564-0.11628 1.0036-0.20761 1.4829-0.91891l0.62633-0.87665 1.3763-2.0348 2.5043-3.2654 2.3666-2.4912c0.89909-0.82929 1.7917-1.671 2.7134-2.455 0.78019-0.53399 1.5378-1.073 2.4098-1.5513 1.1705-0.7213 2.4578-1.0435 3.6283-1.4728l3.1216-0.60924 2.2821-0.46246c0.82518-0.1857 1.3965-0.50905 1.9655-0.79722l1.2316-0.76104-0.22117-0.0553c-0.77443-0.0759-1.462-0.0275-2.2188-0.2443-0.3282-0.11146-1.774-0.70288-2.6159-1.5593-0.964-0.98062-1.7272-1.9695-1.7272-1.9695-0.0637-0.10189-1.0179-1.7045-1.2084-2.2138-0.17257-0.46124-0.28851-1.3954-0.28954-1.3954z" fill="#9c27b0" fill-rule="evenodd" stroke="#9c27b0" stroke-width=".13536px"/>
  <path d="m197.68 37.413c-0.76305 0.01081-1.575 0.04298-2.4952 0.12366-1.659 0.20321-2.825 0.2616-5.1664 0.66556-1.7705 0.37388-3.33 0.56266-5.4238 1.2195-2.9333 1.2596-4.6535 1.8713-6.8275 4.0646-0.99195 1.0645-1.9748 2.0348-2.5435 3.4051 1.6453-0.59828 3.186-1.214 4.9704-1.2134 1.6355-0.05452 3.3961-0.17924 5.0277 0.01107 1.0744 0.03871 2.5295 0.10586 3.7228 0.35288 1.7433 0.23025 2.8744 0.37476 4.6357 0.41923 2.4041 0.16583 4.2619 0.13442 7.124-0.90079l3.0181-1.2969 3.4785-1.6387c2.6294-1.2719 4.5123-1.6878 7.0848-1.9956-1.7222-0.60579-3.2574-1.287-5.1824-1.8116l-4.4848-0.88874c-1.4198-0.17292-1.3934-0.37685-4.7362-0.50971-0.72424-0.0064-1.4386-0.01683-2.2017-6e-3zm17.273 5.6631c-0.91541-0.0054-1.8253 0.0806-2.7808 0.37097-3.4758 0.99823-5.5756 1.8158-8.7073 3.5951l-3.1437 1.1863c-1.239 0.37927-2.3797 0.68826-3.8052 0.74596l-4.7784-0.11059-3.1668-0.32875c-1.9438-0.22991-3.8706-0.56611-5.832-0.35187l-3.1317 0.35187c-1.0118 0.16458-2.0265 0.30348-3.023 0.60523-0.63508 0.1977-1.3723 0.36072-2.0097 0.80428 0.25247 1.1857 0.60358 2.3402 0.99226 3.4805 0.39854 0.92272 0.89544 1.8503 1.4004 2.7426l2.0831 2.7486 2.1293 2.3937c0.48239 0.48597 0.96035 0.6986 1.4417 1.0415 3.5271-0.69268 6.446-1.0441 10.255-0.97821 3.3564 0.5036 6.1563 1.1305 8.8782 2.8461 2.2835 1.7462 3.1768 2.7285 4.3904 5.2941l0.35187-0.11662c1.8878-0.66988 3.8962-0.99694 5.866-1.3592 2.3186-0.66247 4.564-1.2486 6.7024-2.4048l3.1658-1.6769-0.0151-1.4206c0.0657-1.1479 0.23568-2.2291 1.0003-3.1658 0.48994-0.64589 0.75877-1.2021 1.5362-1.889 1.024-0.9955 1.9646-1.7619 3.3106-2.3304 4e-3 -1.4168-0.25237-2.4366-0.66555-3.758-0.59298-1.2564-1.0439-2.4865-2.0288-3.5006-1.9415-2.177-4.2132-3.8847-7.6052-4.6377-0.9744-0.07593-1.8945-0.17258-2.81-0.17794zm0.17392 3.4956c0.3914-1e-3 0.76809 0.04864 1.2386 0.1317 0.94099 0.16606 1.0313 0.18625 1.9363 0.67256 0.90012 0.48371 1.0547 0.59488 1.6689 1.1431 0.61599 0.54979 0.96951 1.0238 1.1079 1.688 0.13838 0.66422 0.19691 1.6036 3e-3 2.074-0.59571 1.1228-1.6792 1.8371-2.7245 1.9272-0.48024 0.11289-1.0947 0.06528-1.7161 0.09752-0.69489-0.07887-1.4725-0.21887-2.1223-0.50066-0.45983-0.19209-0.93322-0.35995-1.3482-0.68666-0.46054-0.35572-1.0987-0.84118-1.325-1.2597-0.27292-0.33055-0.42826-0.74323-0.59215-1.2919-0.20111-1.0857 0.0732-1.8951 0.76104-2.823h1e-3c0.48363-0.50004 0.72228-0.751 1.7845-0.99627 0.53013-0.12243 0.93564-0.17464 1.327-0.17594zm-42.727 4.8367c-1.7871 0.82142-3.2406 1.3226-5.7877 2.5626-2.4371 1.2463-4.6736 2.4348-7.5831 4.4838-4.3934 2.8905-9.0249 6.3194-13.285 10.351l-5.6832 5.1623-7.0473 7.5131c-2.1069 2.4209-4.0543 4.9431-5.989 7.474-1.0208 1.5148-2.0972 3.0167-3.4514 4.4838-2.6422 3.5483-5.4006 7.1868-7.6788 10.909-0.735 1.6163-1.7918 3.0985-2.6973 4.6437-1.3983 2.1537-2.9547 4.3188-4.1551 6.4584-0.99339 2.0859-1.8903 4.257-2.5978 6.4383l-0.6394 2.6109 1.5191 0.0211c0.76356 0.12918 1.3922 0.41154 1.9986 0.74498 1.0933 0.88355 2.039 1.9045 2.9889 2.9336 0.72177 1.0288 1.2727 2.1014 1.7161 3.2654 0.81452-0.22716 1.6324-0.4078 2.435-0.77514 2.5927-1.1564 4.613-2.6702 6.8635-4.0405 2.4398-1.5516 4.8363-3.1992 7.196-4.9262 1.3896-1.0753 3.125-1.7406 4.3733-2.9889-1.2215-1.388-1.224-4.4736-0.94099-6.5315 0.0886-1.108 0.8138-5.9256 0.0462-6.5197-1.0984 0.14721-1.8469 0.90753-2.6561 1.6025l-2.0951 1.4296c-2.7203 1.6607-4.726 0.18507-5.0378-2.3243-0.0384-1.7724 0.0572-3.9017 0.56302-5.239 0.67492-1.9949 1.7918-4.3204 3.1086-5.5283 0.57846-0.52508 0.97275-1.0122 1.8086-1.4658 1.2719-0.38484 1.777 0.63452 1.4336 1.5995l-1.329 1.3492c-1.0185 0.76366-1.6118 1.9201-2.2409 3.1106-0.58628 1.6976-0.85662 3.2959-0.90784 4.9564 0.0967 2.2844 0.38674 2.1721 2.2138 0.88571l1.9373-1.329c0.56251-0.40007 1.0331-0.82343 1.8328-1.1642 0.48874-0.1649 0.96019-0.15196 1.4336-0.16388 2.0054 0.0583 2.323 1.6872 2.628 2.8421 0.0697 0.6637 0.0294 1.2909 8e-3 1.9242l-0.20107 2.2078c-0.31464 1.5661-0.21565 3.2761-0.16588 4.705 0.0485 0.8904 0.20062 1.5375 0.33176 2.3244 1.353-1.8086 2.6878-2.9916 4.2074-4.4276l2.2801-2.3052 0.0995-0.62834c0.22543-1.3634 0.33548-2.6661 0.8415-4.1772 0.39046-1.2499 1.0122-2.5578 1.7081-3.8384 0.87644-1.3546 1.8159-2.7303 2.9215-4.0696l3.2744-4.1883c1.7825-2.2873 3.5827-4.4241 5.4552-6.8563 0.90218-1.5398 2.0279-3.2541 3.3689-4.8096l2.9668-3.8324c1.6032-1.9093 3.1573-3.8537 4.6014-5.8742 1.5305-1.9738 3.2141-3.8554 5.2508-5.4176 0.80201-0.75131 1.8434-1.4028 2.7677-2.1032 1.0701-0.64342 2.1399-1.0336 3.21-1.5502l-2.2691-2.7124c-0.72094-0.91644-1.4659-1.7238-2.1585-2.7677-0.45863-0.59977-0.8103-1.3777-1.1772-2.1303l-1.128 0.67662c-1.5536 0.77751-3.1346 1.4463-4.6316 2.4641l-4.1913 2.4782-3.8726 2.9326-5.0921 4.5944-3.4323 2.9336-4.2064 3.764-4.318 4.3169c-1.0516 1.1163-2.009 2.2683-2.9336 3.4323-0.65573 0.76253-1.2684 1.5494-1.8126 2.3756-1.024 1.3231-1.6683 2.6173-2.6993 4.0063-0.77175 0.49711-1.345 0.6251-1.9775 0.19403-0.4562-0.73299-0.20563-1.2136 0.12366-2.0368l3.3026-4.7543c1.3837-1.8457 2.988-3.5145 4.517-5.2441 1.778-1.7976 3.6127-3.5929 5.5473-5.2477 1.4643-1.2465 2.8185-2.5748 4.2878-3.8856l3.9882-3.5077c3.466-3.1465 7.2758-5.8438 11.182-8.2476 1.956-1.1442 5.0354-2.7154 6.5629-3.4483l-0.83043-2.1032zm57.043 5.8654c-0.095 0.0051-0.18486 0.03284-0.26742 0.08746-0.63019 0.33644-1.2532 0.6987-1.8388 1.2134-0.46752 0.40586-0.97213 0.75167-1.312 1.3703-0.40961 0.6183-0.53779 1.1145-0.6062 1.7413-0.11242 0.74982-0.24963 1.494-0.0784 2.3093 0.35199 0.66468 1.4286 0.82492 2.0549 1.3502l0.95911 0.70473 0.84149 0.80227 0.88066 0.94001 0.89678 1.0878 0.82538 1.1431 0.62633 0.84149c0.93414 1.006 1.5578 1.3311 3.0352 1.1582 1.423-0.47955 1.6996-1.9945 1.329-3.4876-0.14786-0.96107-0.46675-1.8554-0.78317-2.7788-0.15877-0.51428-0.90301-2.1053-1.8066-3.3739l-1.7383-2.3957c-0.55622-0.59365-0.9521-1.1879-1.6749-1.7815l-1.0426-0.8837c-0.1051-0.03552-0.20562-0.05325-0.3006-0.04823zm-39.448 6.4352c-0.81185 0.0122-1.6359 0.05323-2.4611 0.1126-3.2824 0.23616-6.4872 1.4016-8.8875 2.7406-1.4195 0.67534-4.1712 2.9608-4.1712 2.9608-3.0768 3.6001-6.0652 6.8728-8.452 10.716l-6.4584 7.9455-4.8528 6.1841-5.1664 6.3802c-1.4536 2.2442-2.7645 4.01-3.4051 6.5366-0.16376 0.67796-0.21083 1.4338-0.31367 2.1524l1.9574-0.27446 5.4794-0.66452c3.2246-0.45111 6.5032-0.9097 9.6987-1.1944 2.205-0.57686 3.5193-1.0619 4.9795-2.9939 0.86934-1.6992 1.1199-2.2865 0.97821-4.3451-0.0391-0.15656-0.70473-5.1272-0.70473-5.1272-0.33048-2.1451-0.49168-3.9808-1.0858-5.6873-0.73479-1.5437-0.7333-3.5606-0.14679-5.1767 0.98948-2.3241 1.8022-3.5236 3.7771-5.3002 2.7365-2.34 5.6585-4.0204 9.2761-4.149l6.1496 0.06233c2.0555 0.04699 4.2357 0.3436 6.3802 0.56801 2.1421 0.19433 3.9666 0.92828 5.9046 1.4437 2.2177 0.78863 4.9903 1.8813 6.967 3.758l0.23525-0.23525-0.21917-3.39c-0.16681-1.6564-0.17432-3.3131-0.50066-4.9694-0.98968-1.678-2.3667-3.0793-3.8987-4.4004 0 0-2.0478-1.7816-4.3582-2.6511-1.9368-0.81014-4.2651-1.038-6.7008-1.0013zm-4.8639 13.317c-0.53795 0.0026-1.0735 0.01117-1.6035 0.02213l-3.7831 0.21414c-0.8401 0.01565-1.7387 0.05418-3.017 0.39812-2.2117 0.68815-2.5263 1.2704-4.2004 2.5787-0.61526 0.68208-1.6027 1.3857-2.072 2.2429-0.40946 0.63045-0.77978 1.255-0.96817 1.8539-0.52431 1.3067-0.4972 1.4582-0.22118 2.819l0.85858 3.5981 0.52581 4.4004 0.65948 4.0807c0.19309 1.7375 0.0634 2.2714-8e-3 3.1859-0.0291 0.54829-0.28383 1.0964-0.45743 1.6447-0.33162 0.744-0.61522 1.5068-1.1903 2.1595-0.7509 0.99051-1.558 1.6782-2.629 2.2419l-3.3387 1.2768c-2.9292 0.1151-5.6729 0.38937-9.8083 1.0476-2.8313 0.70159-4.4388 0.54464-7.3612 0.88571-1.185 0.30467-2.1151 0.68748-3.0713 1.5935-0.73669 0.69129-1.5946 1.3452-2.2158 2.1424-0.16605 2.8506 0.32573 5.3888 0.32573 5.3888 0.37868 1.9112 1.211 3.5625 2.0871 5.274 0.64275 0.9954 1.5622 1.7148 2.3485 2.5666 0.26999-0.33991 0.54495-0.67765 0.97115-0.95509 1.4409-0.88334 2.1988-0.99483 3.2633-1.0647 0.62582-7e-3 1.2163 0.0376 1.7151 0.22117 2.1731 0.90048 2.5329 2.1745 2.9617 4.0958l1.135-0.0834c1.9124-0.0441 3.8031-0.30593 5.6992-0.53383 2.1051-0.44468 4.1364-1.3091 6.042-2.256l-0.17292-1.0848c-0.0302-1.1628 0.42327-2.0219 0.96816-2.8783 0.66535-0.65865 1.3651-1.278 2.2148-1.5774 1.1828-0.40406 2.0897-0.30837 3.2764-0.11058 0.77777 0.22596 1.3773 0.52827 1.8981 1.1069 0.90687-0.27598 1.6346-0.91099 2.4078-1.4386l3.2302-2.5073 3.8183-3.5338 5.5998-6.3024 3.3488-4.0958 2.4359-3.5981 2.2419-4.0134 2.4933-4.0686c1.1894-2.2095 1.9833-4.5841 2.7205-6.9659l0.84648-3.9379-2.0449-1.6086c-2.1243-1.2855-4.3337-2.1076-6.6725-2.8753-2.1942-0.74513-4.0927-0.99679-6.4239-1.325-1.5832-0.18836-3.2199-0.23242-4.8337-0.22419zm-13.651 46.26c-0.60234-0.0159-0.78719 0.21351-1.1018 0.68666-0.28351 0.89719-0.27982 2.0559 0.0915 2.9808 0.0138 0.0554 0.70977 1.5412 0.70977 1.5412l0.89575 1.5724 1.0908 1.5764 1.327 1.6387 1.1662 1.2406 0.85858 0.84046 1.6075 1.3632 1.7262 1.1592 2.0529 1.2386 0.59015 0.46346 0.59817 0.40114c0.24162 0.12087 0.52612 0.27046 0.79924 0.30462 0.22483 0.0284 0.47288 0.0565 0.7128 0.0171 0.22928-0.0556 0.43152-0.18416 0.61429-0.33277 0.18403-0.17528 0.35984-0.37025 0.39209-0.63941l0.0342-0.70673c6e-3 -0.2537-0.0696-0.50736-0.10456-0.76104-0.0328-0.25508-0.20777-0.54671-0.36092-0.80932-0.17117-0.23015-0.29121-0.41922-0.7319-0.68466l-1.3723-0.78816-0.95406-0.63637-1.2044-0.76104-1.3562-0.98325-1.1069-0.95407-1.0516-1.1069-1.0516-1.1209-1.0224-1.0636-0.95607-1.317c-0.21543-0.37118-0.43101-0.68995-0.64646-1.132l-0.34583-0.95005c-0.0885-0.30376-0.18644-0.63689-0.26542-0.92092-0.0662-0.17647-0.11766-0.34839-0.25334-0.5972-0.28753-0.36579-0.31571-0.3936-0.55695-0.55195-0.18701-0.14152-0.38479-0.2253-0.8244-0.2071zm-20.102 4.1802c-0.42664-0.0344-0.88802 0.10592-0.93698 0.14075 0 0-0.25015 0.0108-0.7198 0.73489-0.46969 0.72408-1.3301 2.8512-1.3301 2.8512l-0.62736 2.2178-0.35187 2.3284-0.13672 2.7004-0.0191 2.2761c-2.7e-4 0.90033 0.28623 1.7051 0.42928 2.5576l0.13774 0.86157 0.56703 1.702 0.60724 1.4286 0.52781 1.0968s0.43089 1.0759 0.4896 1.1542c0.0293 0.10179 0.6306 1.0984 0.75605 1.1723 0.746 0.64872 1.0605 0.53584 1.8096 0.53584 0.91854-0.20758 0.98711-0.83356 1.0546-1.4336l-0.0643-0.945c-0.0423-0.25949 0.0119-0.40105-0.29255-0.98526l-0.44537-0.7319-0.62634-1.135-0.43933-0.99025c-0.16308-0.43053-0.0962-0.16272-0.48056-1.3381l-0.24027-1.0818-0.17192-1.3703-0.0714-1.8297 0.0925-1.9222 0.14578-1.9182c0.0884-0.98711 0.18627-1.6567 0.34282-2.4852l0.29356-1.3894 0.39209-1.3502 0.31266-0.9782c0.0544-0.24063 0.0396-0.51306-0.0191-0.80227-0.0805-0.42699-0.23067-0.70447-0.58711-0.96817-0.11784-0.0607-0.2559-0.0921-0.39811-0.10356zm-46.113 0.46949c0.16606 1.2662 0.44236 1.8549 0.44236 1.8549s0.23538 0.54613 0.47754 0.79522c0.24217 0.24908 0.47725 0.49115 0.75399 0.6987 0.27676 0.20758 0.61583 0.42484 0.97218 0.65449 0.37379 0.24089 0.99828 0.52297 1.4015 0.59112 0.40407 0.0683 0.54001 0.11095 1.135 0.1317 0.59504 0.0207 0.68466 0.0271 0.68466 0.0271s-0.10941-0.53003-0.15784-0.83444c-0.0484-0.30444-0.38872-1.2551-0.72084-1.871-0.33211-0.61578-0.84448-1.0164-0.84448-1.0164s-0.13259-0.11766-0.32372-0.22318c-0.19114-0.10551-0.44044-0.19965-0.53384-0.23425-0.18681-0.0692-0.61552-0.16606-0.98222-0.23525-0.36671-0.0692-1.3633-0.21426-2.3043-0.3388zm-3.3136 0.1317s-0.1787-0.033-1.8227 0.3187c-1.6445 0.35186-3.8672 1.3631-4.9071 1.8076-1.1109 0.4748-5.0602 2.6212-5.0127 2.6973-1.5776 1.1152-3.0132 2.3344-4.4999 3.6444-1.4593 1.3098-2.785 2.5736-4.0686 4.2094 0.0093-2e-3 -0.60384 0.63524-1.2406 1.8277-0.56765 1.0631-1.2528 2.5216-1.7443 4.1229-0.47611 1.5514-0.25351 2.4424-0.14577 3.0271 0.10704 0.58083 0.36069 1.2172 0.95607 1.9554 0.41055 0.54104 0.9813 0.97322 1.6658 1.2386 0.81879 0.32789 1.6611 0.38648 2.5918 0.377 0.34396-0.0215 0.58129-0.057 0.80026-0.0925 0.71564-0.11628 1.0036-0.20761 1.4829-0.91891l0.62633-0.87665 1.3763-2.0348 2.5043-3.2654 2.3666-2.4912c0.89909-0.82929 1.7917-1.671 2.7134-2.455 0.78019-0.53399 1.5378-1.073 2.4098-1.5513 1.1705-0.7213 2.4578-1.0435 3.6283-1.4728l3.1216-0.60924 2.2821-0.46246c0.82518-0.1857 1.3965-0.50905 1.9655-0.79722l1.2316-0.76104-0.22117-0.0553c-0.77443-0.0759-1.462-0.0275-2.2188-0.2443-0.3282-0.11146-1.774-0.70288-2.6159-1.5593-0.964-0.98062-1.7272-1.9695-1.7272-1.9695-0.0637-0.10189-1.0179-1.7045-1.2084-2.2138-0.17257-0.46124-0.28851-1.3954-0.28954-1.3954z" fill="#9c27b0" fill-rule="evenodd" stroke="#9c27b0" stroke-width=".13536px"/>
  <g fill="#ccc" stroke="#ccc" stroke-width=".93751" aria-label="kein Bild">
   <path d="m109.59 191.71q0 0.14649-0.0732 0.25635-0.0732 0.10987-0.25635 0.18311-0.1648 0.0732-0.47608 0.10986-0.31128 0.0366-0.78735 0.0366-0.49439 0-0.82398-0.0366-0.31128-0.0183-0.53101-0.0732-0.21973-0.0732-0.36622-0.18311-0.12817-0.12817-0.23803-0.29297l-6.9581-9.1187v9.137q0 0.14648-0.07324 0.25634-0.07324 0.0916-0.23804 0.1648-0.1648 0.0732-0.45777 0.10986-0.29297 0.0366-0.75074 0.0366-0.43946 0-0.73243-0.0366-0.29297-0.0366-0.47608-0.10986-0.1648-0.0732-0.23804-0.1648-0.05493-0.10986-0.05493-0.25634v-24.463q0-0.14649 0.05493-0.25635 0.07324-0.10987 0.23804-0.18311 0.18311-0.0732 0.47608-0.10986 0.29297-0.0366 0.73243-0.0366 0.45777 0 0.75074 0.0366 0.29297 0.0366 0.45777 0.10986 0.1648 0.0732 0.23804 0.18311 0.07324 0.10986 0.07324 0.25635v14.905l6.2256-6.8482q0.14649-0.1831 0.31128-0.29297 0.1648-0.12817 0.38452-0.20142 0.23804-0.0915 0.54932-0.10986 0.31129-0.0366 0.75074-0.0366 0.45777 0 0.76905 0.0366 0.31128 0.0183 0.49439 0.0916 0.20141 0.0549 0.27466 0.1648 0.0915 0.0916 0.0915 0.25635 0 0.21973-0.12818 0.43945-0.10986 0.21973-0.38452 0.5127l-5.9693 5.9693 6.7017 8.6976q0.23804 0.31128 0.32959 0.5127 0.10986 0.18311 0.10986 0.3479z"/>
   <path d="m126.02 182.78q0 0.71411-0.36622 1.0254-0.3479 0.29297-0.80567 0.29297h-10.803q0 1.3733 0.27466 2.4719t0.91553 1.886q0.64088 0.78736 1.6663 1.2085 1.0254 0.42115 2.5086 0.42115 1.1719 0 2.0874-0.18311 0.91553-0.20142 1.5747-0.43946 0.6775-0.23803 1.0986-0.42114 0.43946-0.20142 0.65918-0.20142 0.12818 0 0.21973 0.0732 0.10987 0.0549 0.1648 0.18311 0.0549 0.12818 0.0732 0.36621 0.0366 0.21973 0.0366 0.54932 0 0.23804-0.0183 0.42115-0.0183 0.16479-0.0549 0.31128-0.0183 0.12817-0.0915 0.23804-0.0549 0.10986-0.1648 0.21973-0.0915 0.0916-0.58594 0.32959-0.49439 0.21973-1.2818 0.43945-0.78735 0.21973-1.8311 0.38453-1.0254 0.1831-2.1973 0.1831-2.0325 0-3.5706-0.56763-1.5198-0.56763-2.5635-1.6846-1.0437-1.117-1.5747-2.8015t-0.53101-3.9185q0-2.124 0.54932-3.8086 0.54932-1.7029 1.5747-2.8748 1.0437-1.1902 2.5086-1.8128 1.4648-0.64087 3.2776-0.64087 1.9409 0 3.2959 0.62256 1.3733 0.62256 2.2522 1.6846 0.87891 1.0437 1.2817 2.4719 0.42115 1.4099 0.42115 3.0213zm-3.0396-0.89723q0.0549-2.3804-1.062-3.7354-1.0986-1.355-3.2776-1.355-1.117 0-1.9592 0.42115-0.84229 0.42114-1.4099 1.117-0.56763 0.6958-0.87891 1.6296-0.31128 0.91553-0.3479 1.9226z"/>
   <path d="m133.65 191.73q0 0.14648-0.0732 0.25634-0.0732 0.0916-0.23804 0.1648-0.1648 0.0732-0.45777 0.10986-0.29297 0.0366-0.75073 0.0366-0.43946 0-0.73243-0.0366t-0.47608-0.10986q-0.16479-0.0732-0.23804-0.1648-0.0549-0.10986-0.0549-0.25634v-16.48q0-0.12818 0.0549-0.23804 0.0732-0.10986 0.23804-0.18311 0.18311-0.0732 0.47608-0.10986 0.29297-0.0366 0.73243-0.0366 0.45776 0 0.75073 0.0366t0.45777 0.10986q0.16479 0.0733 0.23804 0.18311 0.0732 0.10986 0.0732 0.23804zm0.3479-22.046q0 1.062-0.40283 1.4465-0.40284 0.38453-1.4832 0.38453-1.062 0-1.4648-0.36622-0.38452-0.38452-0.38452-1.4282 0-1.062 0.40283-1.4465 0.40284-0.38452 1.4832-0.38452 1.062 0 1.4465 0.38452 0.40283 0.36621 0.40283 1.4099z"/>
   <path d="m153.47 191.73q0 0.14648-0.0732 0.25634-0.0732 0.0916-0.23804 0.1648-0.16479 0.0732-0.45776 0.10986-0.29297 0.0366-0.73243 0.0366-0.45777 0-0.75074-0.0366t-0.45776-0.10986q-0.1648-0.0732-0.23804-0.1648-0.0732-0.10986-0.0732-0.25634v-9.6497q0-1.4099-0.21973-2.2705t-0.64087-1.4832q-0.42115-0.62256-1.0986-0.95216-0.65919-0.32959-1.5381-0.32959-1.1353 0-2.2705 0.80567t-2.3804 2.3621v11.517q0 0.14648-0.0733 0.25634-0.0732 0.0916-0.23803 0.1648-0.1648 0.0732-0.45777 0.10986-0.29297 0.0366-0.75074 0.0366-0.43945 0-0.73242-0.0366t-0.47608-0.10986q-0.1648-0.0732-0.23804-0.1648-0.0549-0.10986-0.0549-0.25634v-16.48q0-0.14649 0.0549-0.23804 0.0549-0.10986 0.21973-0.18311 0.1648-0.0915 0.42114-0.10986 0.25635-0.0366 0.6775-0.0366 0.40283 0 0.65918 0.0366 0.27466 0.0183 0.42115 0.10986 0.14648 0.0733 0.20141 0.18311 0.0733 0.0916 0.0733 0.23804v2.179q1.3916-1.5564 2.7649-2.2705 1.3916-0.73243 2.8015-0.73243 1.648 0 2.7649 0.56763 1.1353 0.54932 1.8311 1.4832 0.6958 0.93385 0.98877 2.1973 0.31128 1.2451 0.31128 3.003z"/>
   <path d="m183.44 185.4q0 1.117-0.29297 2.0691-0.27466 0.93385-0.78735 1.6846-0.5127 0.75074-1.2451 1.3184-0.71411 0.56763-1.6296 0.95215-0.89722 0.38453-1.9409 0.58594-1.0254 0.18311-2.3621 0.18311h-6.189q-0.42114 0-0.80567-0.27466-0.36621-0.29297-0.36621-1.0071v-21.13q0-0.71411 0.36621-0.98877 0.38453-0.29297 0.80567-0.29297h5.3833q2.124 0 3.479 0.40283 1.355 0.40284 2.2522 1.1719 0.91553 0.76905 1.3733 1.886 0.45777 1.117 0.45777 2.5269 0 0.84229-0.20142 1.6113-0.20141 0.76905-0.60425 1.4282-0.38452 0.64087-0.98877 1.1536-0.58594 0.5127-1.355 0.84229 0.97046 0.18311 1.8128 0.67749 0.84229 0.47608 1.4648 1.2268 0.64088 0.75074 1.0071 1.7578 0.36621 1.0071 0.36621 2.2156zm-4.7424-10.602q0-0.8606-0.23804-1.5564-0.23804-0.69581-0.75074-1.1719-0.5127-0.49439-1.3367-0.75074t-2.179-0.25635h-3.2593v7.6722h3.5889q1.2268 0 1.9776-0.31128 0.75073-0.32959 1.2451-0.8606 0.49439-0.54932 0.71412-1.2634 0.23804-0.73243 0.23804-1.5015zm1.4282 10.785q0-1.062-0.34791-1.8677-0.32959-0.80567-0.98877-1.355-0.64087-0.54932-1.6296-0.82398-0.97046-0.29297-2.4536-0.29297h-3.772v8.3497h4.5777q1.0803 0 1.886-0.25635t1.4099-0.75074q0.62256-0.5127 0.97046-1.2634 0.34791-0.75074 0.34791-1.7395z"/>
   <path d="m190.93 191.73q0 0.14648-0.0732 0.25634-0.0733 0.0916-0.23804 0.1648-0.1648 0.0732-0.45777 0.10986-0.29297 0.0366-0.75074 0.0366-0.43945 0-0.73242-0.0366t-0.47608-0.10986q-0.16479-0.0732-0.23804-0.1648-0.0549-0.10986-0.0549-0.25634v-16.48q0-0.12818 0.0549-0.23804 0.0733-0.10986 0.23804-0.18311 0.18311-0.0732 0.47608-0.10986 0.29297-0.0366 0.73242-0.0366 0.45777 0 0.75074 0.0366t0.45777 0.10986q0.16479 0.0733 0.23804 0.18311 0.0732 0.10986 0.0732 0.23804zm0.3479-22.046q0 1.062-0.40283 1.4465-0.40284 0.38453-1.4832 0.38453-1.062 0-1.4648-0.36622-0.38452-0.38452-0.38452-1.4282 0-1.062 0.40283-1.4465 0.40284-0.38452 1.4832-0.38452 1.062 0 1.4466 0.38452 0.40283 0.36621 0.40283 1.4099z"/>
   <path d="m199.57 191.73q0 0.14648-0.0732 0.25634-0.0732 0.0916-0.23804 0.1648-0.16479 0.0732-0.45777 0.10986-0.29297 0.0366-0.75073 0.0366-0.43946 0-0.73243-0.0366t-0.47607-0.10986q-0.1648-0.0732-0.23804-0.1648-0.0549-0.10986-0.0549-0.25634v-24.463q0-0.14649 0.0549-0.25635 0.0732-0.10987 0.23804-0.18311 0.1831-0.0732 0.47607-0.10986 0.29297-0.0366 0.73243-0.0366 0.45776 0 0.75073 0.0366 0.29298 0.0366 0.45777 0.10986 0.1648 0.0732 0.23804 0.18311 0.0732 0.10986 0.0732 0.25635z"/>
   <path d="m219.31 191.73q0 0.14648-0.0732 0.25634-0.0549 0.10987-0.21973 0.18311-0.14649 0.0549-0.40284 0.0916-0.25635 0.0366-0.62256 0.0366-0.38452 0-0.64087-0.0366t-0.42115-0.0916q-0.16479-0.0732-0.23803-0.18311-0.0733-0.10986-0.0733-0.25634v-2.179q-1.3 1.4099-2.71 2.1973-1.3916 0.78735-3.0579 0.78735-1.8128 0-3.0945-0.6958-1.2818-0.71412-2.0874-1.9043-0.78735-1.2085-1.1536-2.8198-0.36621-1.6296-0.36621-3.4241 0-2.124 0.45777-3.8269 0.45776-1.7212 1.355-2.9297 0.89723-1.2085 2.2156-1.8494 1.3367-0.65918 3.0762-0.65918 1.4465 0 2.6367 0.64087 1.2085 0.62256 2.3804 1.8494v-9.5765q0-0.12818 0.0549-0.23804 0.0732-0.12818 0.25635-0.18311 0.18311-0.0732 0.45777-0.10986 0.29297-0.0549 0.73242-0.0549 0.45777 0 0.75074 0.0549 0.29297 0.0366 0.45777 0.10986 0.16479 0.0549 0.23803 0.18311 0.0916 0.10986 0.0916 0.23804zm-3.0396-11.591q-1.2268-1.5198-2.3804-2.3071-1.1353-0.80567-2.3804-0.80567-1.1536 0-1.9592 0.54932t-1.3184 1.4465q-0.49438 0.89723-0.73242 2.0325-0.21973 1.1353-0.21973 2.3071 0 1.2451 0.18311 2.4353 0.20141 1.1902 0.67749 2.124 0.47608 0.91553 1.2634 1.4832 0.78735 0.54932 1.9776 0.54932 0.60425 0 1.1536-0.16479 0.56763-0.1648 1.1536-0.54932 0.58594-0.38453 1.2268-0.98878 0.64087-0.62256 1.355-1.5198z"/>
  </g>
 </g>
</svg>
